<?xml version="1.0" encoding="UTF-8"?>
<svg xmlns="http://www.w3.org/2000/svg" version="1.1" width="600" height="106"><svg viewBox="0 0 642.48 113.39" x="0" y="0" width="600" height="106"><defs><style>.c{fill:#fff;}</style></defs><g id="a"/><g id="b"><g><path class="c" d="M92.24,95.68c-18.12-.69-42.74-1.52-58.48-11.78-4.45-4.53-1.99-22.83-1.92-32.71C32.15,7.11,65.7-1.82,103.15,.28c33.71,2.67,53.44,18.52,52.94,54.32-.12,8.83,1.95,27.46-2.17,29-20.7,10.23-39.04,12.37-61.68,12.08Z"/><path class="c" d="M94.31,113.19c-23.8,0-99.2,4.34-94.06-27.66,.88-5.99,3.93-12.29,10.74-10.52,15.72,3.31,12.31,13.16,42.96,20.1,28.99,6.56,60.08,6.41,88.88-1.94,12.91-3.75,18.82-11.21,29.25-14.77,15.97-7.66,20.8,14.2,8.9,22.12-25.72,15.12-62.86,12.67-86.66,12.67Z"/></g><g><g><path class="c" d="M205.65,27.4c-2.81-2.52-3.5-5.82-3.5-8.56,0-1.94,.67-5.32,3.24-7.9,1.74-1.74,4.37-3.1,8.82-3.1,1.16,0,2.78,.09,4.2,.35,1.1,.2,2,.29,3.07,.43,.2,.03,.26,.14,.26,.32,0,.23-.09,.58-.14,1.62-.06,.95-.06,2.54-.09,2.98-.03,.43-.09,.61-.26,.61-.2,0-.23-.2-.23-.61,0-1.13-.46-2.31-1.21-2.95-1.01-.87-3.24-1.65-5.79-1.65-3.85,0-5.64,1.13-6.65,2.11-2.11,2.03-2.6,4.6-2.6,7.55,0,5.53,4.25,10.59,10.44,10.59,2.17,0,3.88-.26,5.03-1.45,.61-.64,.98-1.91,1.07-2.43,.06-.32,.12-.43,.29-.43,.14,0,.2,.2,.2,.43,0,.2-.35,2.72-.64,3.7-.17,.55-.23,.61-.75,.84-1.16,.46-3.36,.67-5.21,.67-4.34,0-7.26-1.07-9.55-3.12Z"/><path class="c" d="M215.2,31.02c-4.27,0-7.41-1.03-9.88-3.25h0c-2.43-2.18-3.67-5.19-3.67-8.94,0-2.35,.89-5.75,3.39-8.25,2.18-2.18,5.18-3.24,9.18-3.24,.7,0,2.53,.04,4.29,.36,.77,.14,1.45,.23,2.15,.32l.89,.12c.44,.06,.69,.37,.69,.81,0,.11-.01,.23-.04,.42-.03,.24-.07,.61-.11,1.23-.03,.55-.05,1.32-.06,1.94,0,.46-.02,.86-.03,1.04-.02,.32-.07,1.07-.76,1.07-.73,0-.73-.8-.73-1.11,0-1.01-.42-2.04-1.04-2.57-.86-.74-2.94-1.53-5.46-1.53-2.88,0-4.94,.64-6.31,1.97-2.16,2.07-2.45,4.8-2.45,7.19,0,4.96,3.72,10.09,9.94,10.09,2.42,0,3.78-.38,4.68-1.3,.49-.51,.85-1.66,.94-2.16,.04-.24,.16-.85,.78-.85,.32,0,.7,.24,.7,.93,0,.28-.36,2.84-.66,3.84-.22,.69-.37,.86-1.03,1.15-1.31,.52-3.65,.71-5.41,.71Zm-.98-22.68c-3.71,0-6.48,.96-8.47,2.95-2.28,2.28-3.09,5.39-3.09,7.54,0,3.45,1.12,6.21,3.33,8.19h0c2.31,2.07,5.15,3,9.21,3,2.09,0,4.06-.25,5.02-.63q.34-.15,.46-.53c.09-.3,.18-.75,.27-1.24-.11,.17-.23,.33-.36,.46-1.37,1.41-3.4,1.6-5.4,1.6-6.85,0-10.94-5.64-10.94-11.09,0-2.6,.33-5.58,2.76-7.91,1.56-1.51,3.85-2.25,7-2.25,2.8,0,5.08,.89,6.11,1.77,.38,.32,.7,.76,.93,1.26,0-.34,.02-.67,.04-.94,.04-.65,.08-1.04,.11-1.29,0-.05,.01-.1,.02-.15l-.7-.09c-.72-.09-1.41-.18-2.21-.32-1.16-.21-2.69-.34-4.1-.34Z"/></g><g><path class="c" d="M241.55,17.42c.09,0,.17-.03,.17-.17v-.61c0-4.51,0-5.32-.06-6.25-.06-.98-.29-1.45-1.24-1.65-.23-.06-.72-.09-.98-.09-.12,0-.23-.06-.23-.17,0-.17,.14-.23,.46-.23,1.3,0,3.12,.09,3.27,.09s1.97-.09,2.84-.09c.32,0,.46,.06,.46,.23,0,.12-.12,.17-.23,.17-.2,0-.38,.03-.72,.09-.78,.14-1.01,.64-1.07,1.65-.06,.93-.06,1.74-.06,6.25v5.09c0,2.78,0,5.06,.14,6.28,.09,.84,.26,1.48,1.13,1.59,.41,.06,1.04,.12,1.3,.12,.17,0,.23,.09,.23,.17,0,.14-.15,.23-.46,.23-1.59,0-3.41-.09-3.56-.09s-1.97,.09-2.84,.09c-.32,0-.46-.06-.46-.23,0-.09,.06-.17,.23-.17,.26,0,.61-.06,.87-.12,.58-.12,.72-.75,.84-1.59,.14-1.21,.14-3.5,.14-6.28v-3.04c0-.12-.09-.17-.17-.17h-12.27c-.09,0-.17,.03-.17,.17v3.04c0,2.78,0,5.06,.14,6.28,.09,.84,.26,1.48,1.13,1.59,.41,.06,1.04,.12,1.3,.12,.17,0,.23,.09,.23,.17,0,.14-.15,.23-.46,.23-1.59,0-3.41-.09-3.56-.09s-1.97,.09-2.84,.09c-.32,0-.46-.06-.46-.23,0-.09,.06-.17,.23-.17,.26,0,.61-.06,.87-.12,.58-.12,.72-.75,.84-1.59,.14-1.21,.14-3.5,.14-6.28v-5.09c0-4.51,0-5.32-.06-6.25-.06-.98-.29-1.45-1.24-1.65-.23-.06-.72-.09-.98-.09-.12,0-.23-.06-.23-.17,0-.17,.14-.23,.46-.23,1.3,0,3.12,.09,3.27,.09s1.97-.09,2.84-.09c.32,0,.46,.06,.46,.23,0,.12-.12,.17-.23,.17-.2,0-.38,.03-.72,.09-.78,.14-1.01,.64-1.07,1.65-.06,.93-.06,1.74-.06,6.25v.61c0,.14,.09,.17,.17,.17h12.27Z"/><path class="c" d="M246.5,30.62c-1.23,0-2.6-.05-3.23-.08-.18,0-.29-.01-.33-.01-.04,0-.22,0-.46,.02-.64,.03-1.75,.07-2.37,.07-.87,0-.96-.51-.96-.73,0-.33,.25-.67,.73-.67,.18,0,.47-.04,.76-.1,.22-.04,.34-.36,.45-1.17,.14-1.18,.14-3.51,.14-6.21v-2.71h-11.61v2.71c0,2.7,0,5.03,.14,6.22,.09,.92,.27,1.1,.7,1.16,.4,.06,1.01,.11,1.24,.11,.48,0,.73,.34,.73,.67,0,.12-.05,.73-.96,.73-1.23,0-2.6-.05-3.23-.08-.18,0-.29-.01-.33-.01-.04,0-.22,0-.46,.02-.64,.03-1.75,.07-2.37,.07-.87,0-.96-.51-.96-.73,0-.33,.25-.67,.73-.67,.18,0,.47-.04,.76-.1,.22-.04,.34-.36,.45-1.17,.14-1.18,.14-3.51,.14-6.21v-5.09c0-4.5,0-5.31-.06-6.22-.05-.85-.19-1.05-.85-1.19-.18-.04-.61-.08-.88-.08-.42,0-.73-.29-.73-.67,0-.22,.09-.73,.96-.73,.98,0,2.26,.05,2.9,.07,.2,0,.33,.01,.37,.01,.04,0,.22,0,.46-.02,.64-.03,1.75-.07,2.37-.07,.87,0,.96,.51,.96,.73,0,.38-.31,.67-.73,.67-.18,0-.33,.03-.63,.08-.38,.07-.61,.16-.67,1.19-.06,.91-.06,1.72-.06,6.22v.28h11.61v-.28c0-4.5,0-5.31-.06-6.22-.05-.85-.19-1.05-.85-1.19-.18-.04-.61-.08-.88-.08-.42,0-.73-.29-.73-.67,0-.22,.09-.73,.96-.73,.98,0,2.26,.05,2.9,.07,.2,0,.33,.01,.37,.01,.04,0,.22,0,.46-.02,.64-.03,1.75-.07,2.37-.07,.87,0,.96,.51,.96,.73,0,.38-.31,.67-.73,.67-.18,0-.33,.03-.63,.08-.38,.07-.61,.16-.67,1.19-.06,.91-.06,1.72-.06,6.22v5.09c0,2.7,0,5.03,.14,6.22,.09,.92,.27,1.1,.7,1.16,.4,.06,1.01,.11,1.24,.11,.48,0,.73,.34,.73,.67,0,.12-.05,.73-.96,.73Zm-19.92-21.83c.38,.38,.5,.92,.54,1.57,.06,.94,.06,1.75,.06,6.28v5.09c0,2.85,0,5.09-.15,6.34-.06,.47-.15,1.08-.46,1.52,.3-.01,.59-.02,.82-.03,.27-.01,.46-.02,.5-.02,.04,0,.17,0,.37,.01,.24,0,.6,.02,1.01,.04-.41-.46-.47-1.11-.52-1.52-.15-1.24-.15-3.48-.15-6.33v-3.04c0-.4,.28-.67,.67-.67h12.27c.38,0,.67,.3,.67,.67v3.04c0,2.85,0,5.09-.15,6.34-.06,.47-.15,1.08-.46,1.52,.3-.01,.59-.02,.82-.03,.27-.01,.46-.02,.5-.02,.04,0,.17,0,.37,.01,.24,0,.6,.02,1.01,.04-.41-.46-.47-1.11-.52-1.52-.15-1.24-.15-3.48-.15-6.33v-5.09c0-4.52,0-5.34,.06-6.28,.03-.59,.13-1.16,.47-1.57-.27,0-.53,.02-.74,.03-.27,.01-.46,.02-.5,.02-.04,0-.19,0-.41-.01-.23,0-.55-.02-.91-.03,.38,.38,.5,.92,.54,1.57,.06,.94,.06,1.75,.06,6.28v.61c0,.4-.28,.67-.67,.67h-12.27c-.4,0-.67-.28-.67-.67v-.61c0-4.52,0-5.34,.06-6.28,.03-.59,.13-1.16,.47-1.57-.27,0-.53,.02-.74,.03-.27,.01-.46,.02-.5,.02-.04,0-.19,0-.41-.01-.23,0-.55-.02-.91-.03Z"/></g><g><path class="c" d="M255.23,21.58c-.14,0-.23,.09-.29,.23l-1.74,5.12c-.26,.72-.4,1.42-.4,1.94,0,.58,.55,.84,1.04,.84h.26c.29,0,.38,.06,.38,.17,0,.17-.26,.23-.52,.23-.69,0-1.85-.09-2.17-.09s-1.91,.09-3.27,.09c-.38,0-.55-.06-.55-.23,0-.12,.14-.17,.41-.17,.2,0,.46-.03,.69-.06,1.33-.17,1.91-1.27,2.43-2.72l6.57-17.97c.35-.96,.46-1.13,.64-1.13s.29,.15,.64,1.04c.43,1.1,4.98,13.05,6.74,17.45,1.04,2.58,1.88,3.04,2.49,3.21,.43,.15,.9,.17,1.13,.17,.17,0,.32,.03,.32,.17,0,.17-.26,.23-.58,.23-.43,0-2.55,0-4.54-.06-.55-.03-.87-.03-.87-.2,0-.12,.09-.17,.2-.2,.17-.06,.35-.32,.17-.78l-2.69-7.12c-.06-.12-.12-.17-.26-.17h-6.22Zm5.84-1.04c.15,0,.15-.09,.12-.2l-2.75-7.81c-.15-.43-.29-.43-.43,0l-2.55,7.81c-.06,.15,0,.2,.09,.2h5.53Z"/><path class="c" d="M269.43,30.62c-.44,0-2.55,0-4.56-.06h-.15c-.54-.04-1.21-.07-1.21-.7,0-.23,.12-.51,.45-.64,0-.04-.01-.09-.04-.16l-2.63-6.97h-5.92l-1.7,5.01c-.24,.67-.38,1.32-.38,1.78,0,.33,.54,.34,.54,.34h.26c.79,0,.88,.47,.88,.67,0,.12-.05,.73-1.02,.73-.42,0-1.01-.03-1.49-.06-.3-.02-.56-.03-.68-.03-.1,0-.33,0-.65,.02-.67,.03-1.7,.07-2.62,.07-.87,0-1.05-.4-1.05-.73,0-.11,.04-.67,.91-.67,.18,0,.42-.03,.63-.05,1.02-.13,1.51-.98,2.02-2.39l6.57-17.97c.33-.91,.53-1.46,1.11-1.46s.79,.54,1.1,1.36c.12,.31,.57,1.48,1.2,3.11,1.6,4.18,4.28,11.17,5.54,14.33,1.05,2.6,1.83,2.82,2.16,2.92,.43,.14,.87,.15,.99,.15,.8,0,.82,.6,.82,.67,0,.22-.1,.73-1.08,.73Zm-21.18-.4h0Zm5.96,0h0Zm10.71-.66c.92,.03,1.87,.04,2.67,.05-.59-.44-1.25-1.3-1.97-3.09-1.27-3.16-3.95-10.16-5.55-14.34-.62-1.62-1.07-2.8-1.19-3.11-.06-.16-.12-.29-.16-.4-.05,.12-.11,.28-.18,.47l-6.57,17.97c-.33,.91-.73,1.87-1.47,2.47,.22,0,.43-.02,.61-.02,.33-.01,.58-.02,.68-.02,.13,0,.39,.01,.71,.03-.12-.19-.19-.42-.19-.69,0-.58,.15-1.33,.43-2.11l1.73-5.11c.21-.52,.6-.57,.76-.57h6.22c.32,0,.56,.15,.71,.45l2.71,7.16c.14,.38,.12,.66,.05,.86Zm-3.85-8.52h-5.53c-.21,0-.4-.09-.51-.26-.07-.1-.17-.32-.04-.63l2.54-7.78c.06-.17,.22-.67,.69-.67h0c.47,0,.64,.5,.69,.67l2.75,7.8c.04,.13,.1,.4-.08,.64-.07,.09-.22,.23-.51,.23Zm-5.14-.55h0Zm.15-.45h4.47l-2.32-6.6-2.15,6.6Z"/></g><g><path class="c" d="M273.34,16.64c0-4.51,0-5.32-.06-6.25-.06-.98-.29-1.45-1.24-1.65-.23-.06-.72-.09-.98-.09-.12,0-.23-.06-.23-.17,0-.17,.14-.23,.46-.23,1.3,0,3.12,.09,3.27,.09,.32,0,2.52-.09,3.41-.09,1.82,0,3.76,.17,5.29,1.27,.72,.52,2,1.94,2,3.93,0,2.14-.9,4.28-3.5,6.68,2.37,3.04,4.34,5.61,6.02,7.41,1.56,1.65,2.81,1.97,3.53,2.08,.55,.09,.95,.09,1.13,.09,.14,0,.26,.09,.26,.17,0,.17-.17,.23-.69,.23h-2.05c-1.62,0-2.34-.14-3.1-.55-1.24-.67-2.26-2.08-3.91-4.25-1.22-1.59-2.58-3.53-3.15-4.28-.12-.12-.2-.17-.38-.17l-3.56-.06c-.14,0-.2,.09-.2,.23v.69c0,2.78,0,5.06,.15,6.28,.09,.84,.26,1.48,1.13,1.59,.4,.06,1.04,.12,1.3,.12,.17,0,.23,.09,.23,.17,0,.14-.14,.23-.46,.23-1.59,0-3.41-.09-3.56-.09-.03,0-1.85,.09-2.72,.09-.32,0-.46-.06-.46-.23,0-.09,.06-.17,.23-.17,.26,0,.61-.06,.87-.12,.58-.12,.72-.75,.84-1.59,.14-1.21,.14-3.5,.14-6.28v-5.09Zm2.31,2.52c0,.14,.06,.26,.2,.35,.43,.26,1.77,.46,3.04,.46,.69,0,1.5-.09,2.17-.55,1.01-.69,1.76-2.26,1.76-4.46,0-3.62-1.91-5.79-5-5.79-.87,0-1.65,.09-1.94,.17-.14,.06-.23,.17-.23,.35v9.46Z"/><path class="c" d="M292,30.62h-2.05c-1.67,0-2.48-.15-3.33-.61-1.24-.67-2.22-1.95-3.7-3.9l-.37-.49c-.7-.92-1.45-1.96-2.08-2.81-.45-.62-.83-1.15-1.08-1.47l-3.24-.03v.42c0,2.7,0,5.03,.14,6.22,.09,.92,.26,1.1,.7,1.16,.4,.06,1,.11,1.24,.11,.48,0,.73,.34,.73,.67,0,.12-.05,.73-.96,.73-1.23,0-2.6-.05-3.23-.08-.18,0-.29-.01-.33-.01h-.11c-.44,.02-1.87,.09-2.61,.09-.87,0-.96-.51-.96-.73,0-.33,.25-.67,.73-.67,.18,0,.47-.04,.76-.1,.22-.04,.34-.36,.45-1.17,.14-1.18,.14-3.51,.14-6.21v-5.09c0-4.5,0-5.31-.06-6.22-.05-.85-.19-1.05-.85-1.19-.18-.04-.61-.08-.88-.08-.42,0-.73-.29-.73-.67,0-.22,.09-.73,.96-.73,.98,0,2.26,.05,2.9,.07,.2,0,.33,.01,.37,.01,.12,0,.49-.01,.96-.03,.81-.03,1.89-.06,2.45-.06,1.82,0,3.91,.16,5.59,1.37,.82,.59,2.21,2.17,2.21,4.34,0,2.39-1.06,4.54-3.33,6.73l.56,.72c1.98,2.54,3.69,4.73,5.15,6.29,1.41,1.49,2.53,1.82,3.24,1.93,.51,.08,.89,.08,1.05,.08,.42,0,.76,.3,.76,.67,0,.73-.84,.73-1.19,.73Zm-12.26-10.21c.17,.06,.3,.17,.4,.27,.29,.37,.68,.9,1.14,1.54,.62,.85,1.36,1.88,2.06,2.79l.37,.49c1.4,1.84,2.32,3.06,3.37,3.62,.58,.31,1.13,.47,2.56,.49-.65-.33-1.41-.85-2.24-1.73-1.49-1.6-3.21-3.8-5.21-6.36l-1.13-1.44,.31-.29s-.03,.02-.05,.03c-.51,.36-1.08,.52-1.6,.59Zm-6.5-11.63c.38,.38,.5,.92,.54,1.57,.06,.94,.06,1.75,.06,6.28v5.09c0,2.85,0,5.09-.15,6.34-.06,.47-.15,1.08-.46,1.52,.45-.02,.85-.03,1.05-.04h.15s.17,0,.37,0c.24,0,.6,.02,1.01,.04-.41-.46-.47-1.11-.52-1.52-.15-1.24-.15-3.48-.15-6.33v-.69c0-.43,.29-.73,.7-.73l1.11,.02c-.58-.09-1.08-.22-1.36-.39-.29-.17-.45-.45-.45-.78V9.69c0-.37,.2-.67,.55-.81,.11-.04,.26-.07,.43-.09-.2,0-.4,.01-.58,.02-.49,.02-.87,.03-.99,.03-.04,0-.19,0-.41-.01-.23,0-.55-.02-.91-.03Zm2.91,10.31c.33,.16,1.43,.37,2.74,.37,.52,0,1.29-.05,1.88-.46,.97-.67,1.55-2.18,1.55-4.04,0-3.31-1.68-5.29-4.5-5.29-.75,0-1.37,.07-1.67,.12v9.3Zm-.5,.06h0Zm3.3-10.38c2.73,.48,4.38,2.76,4.38,6.19,0,1.67-.43,3.12-1.18,4.1,1.78-1.85,2.61-3.65,2.61-5.6,0-1.77-1.12-3.05-1.79-3.53-1.17-.84-2.63-1.09-4.02-1.16Z"/></g><g><path class="c" d="M297.64,21.79c0,4.25,.12,6.1,.64,6.62,.46,.46,1.22,.67,3.47,.67,1.53,0,2.81-.03,3.5-.87,.38-.46,.67-1.19,.75-1.74,.03-.23,.09-.38,.26-.38,.14,0,.17,.12,.17,.43s-.2,2.05-.43,2.89c-.2,.67-.29,.78-1.82,.78-2.49,0-4.95-.17-7.75-.17-.9,0-1.76,.09-2.84,.09-.32,0-.46-.06-.46-.23,0-.09,.06-.17,.23-.17,.26,0,.61-.06,.87-.12,.58-.12,.72-.75,.84-1.59,.14-1.21,.14-3.5,.14-6.28v-5.09c0-4.51,0-5.32-.06-6.25-.06-.98-.29-1.45-1.24-1.65-.23-.06-.72-.09-.98-.09-.12,0-.23-.06-.23-.17,0-.17,.14-.23,.46-.23,1.3,0,3.12,.09,3.27,.09s2.26-.09,3.12-.09c.32,0,.46,.06,.46,.23,0,.12-.12,.17-.23,.17-.2,0-.61,.03-.95,.09-.84,.14-1.07,.64-1.13,1.65-.06,.93-.06,1.74-.06,6.25v5.15Z"/><path class="c" d="M304.18,30.71c-1.21,0-2.42-.04-3.66-.08-1.69-.06-3.45-.14-5.36-.05-.49,.02-1,.05-1.57,.05-.87,0-.96-.51-.96-.73,0-.33,.25-.67,.73-.67,.18,0,.47-.04,.76-.1,.22-.04,.34-.36,.45-1.17,.14-1.18,.14-3.51,.14-6.21v-5.09c0-4.5,0-5.31-.06-6.22-.05-.85-.19-1.05-.85-1.19-.18-.04-.61-.08-.88-.08-.42,0-.73-.29-.73-.67,0-.22,.09-.73,.96-.73,.98,0,2.26,.05,2.9,.07,.2,0,.33,.01,.37,.01,.04,0,.24,0,.53-.02,.73-.02,1.98-.07,2.6-.07,.87,0,.96,.51,.96,.73,0,.38-.31,.67-.73,.67-.16,0-.54,.02-.87,.08-.46,.08-.66,.21-.71,1.18-.06,.91-.06,1.72-.06,6.22v5.15c0,2.16,0,5.78,.49,6.27,.33,.33,.94,.52,3.12,.52,1.54,0,2.59-.05,3.12-.69,.29-.36,.56-.99,.64-1.5,.09-.69,.51-.8,.75-.8,.45,0,.67,.31,.67,.93,0,.39-.21,2.17-.45,3.03-.32,1.04-.75,1.15-2.3,1.15Zm-7.75-1.17c1.45,0,2.81,.05,4.13,.09,1.23,.04,2.42,.08,3.63,.08s1.21,0,1.34-.43c.06-.22,.12-.51,.17-.83-.02,.03-.04,.05-.06,.08-.87,1.05-2.4,1.05-3.89,1.05-2.28,0-3.21-.2-3.83-.81-.62-.62-.78-2.06-.78-6.98v-5.15c0-4.52,0-5.34,.06-6.28,.03-.59,.13-1.16,.48-1.57-.26,0-.5,.02-.69,.02-.3,.01-.52,.02-.56,.02-.04,0-.19,0-.41-.01-.23,0-.55-.02-.91-.03,.38,.38,.5,.92,.54,1.57,.06,.94,.06,1.75,.06,6.28v5.09c0,2.85,0,5.09-.15,6.34-.06,.46-.15,1.07-.45,1.51h0c.45-.02,.88-.04,1.31-.04Z"/></g><g><path class="c" d="M310.37,16.64c0-4.51,0-5.32-.06-6.25-.06-.98-.35-1.48-.98-1.62-.32-.09-.69-.12-.9-.12-.12,0-.23-.06-.23-.17,0-.17,.14-.23,.46-.23,.95,0,2.78,.09,2.92,.09s1.97-.09,2.83-.09c.32,0,.46,.06,.46,.23,0,.12-.12,.17-.23,.17-.2,0-.38,.03-.72,.09-.78,.14-1.01,.64-1.07,1.65-.06,.93-.06,1.74-.06,6.25v5.09c0,2.78,0,5.06,.15,6.28,.09,.84,.26,1.48,1.13,1.59,.4,.06,1.01,.12,1.19,.12,.26,0,.35,.09,.35,.17,0,.14-.12,.23-.43,.23-1.59,0-3.44-.09-3.59-.09s-1.97,.09-2.83,.09c-.32,0-.46-.06-.46-.23,0-.09,.06-.17,.32-.17,.17,0,.49-.03,.75-.09,.58-.12,.75-.78,.87-1.62,.15-1.21,.15-3.5,.15-6.28v-5.09Z"/><path class="c" d="M315.17,30.62c-1.23,0-2.61-.05-3.26-.08-.18,0-.3-.01-.33-.01-.04,0-.22,0-.46,.02-.64,.03-1.75,.07-2.37,.07-.87,0-.96-.51-.96-.73,0-.07,.02-.67,.82-.67,.13,0,.41-.02,.64-.08,.23-.05,.37-.4,.48-1.2,.14-1.18,.14-3.51,.14-6.21v-5.09c0-4.5,0-5.31-.06-6.22-.06-1.04-.38-1.12-.6-1.17-.27-.07-.59-.1-.79-.1-.42,0-.73-.29-.73-.67,0-.22,.09-.73,.96-.73,.69,0,1.84,.04,2.48,.07,.23,0,.4,.02,.44,.02s.22,0,.46-.02c.64-.03,1.75-.07,2.37-.07,.87,0,.96,.51,.96,.73,0,.38-.31,.67-.73,.67-.18,0-.33,.03-.63,.08-.38,.07-.61,.16-.67,1.19-.06,.91-.06,1.72-.06,6.22v5.09c0,2.7,0,5.03,.14,6.22,.09,.92,.26,1.1,.7,1.16,.42,.06,.99,.11,1.12,.11,.67,0,.85,.42,.85,.67,0,.12-.04,.73-.93,.73Zm-4.86-21.83c.38,.44,.47,1.07,.5,1.57,.06,.94,.06,1.75,.06,6.28v5.09c0,2.85,0,5.09-.15,6.34-.06,.42-.15,1.06-.47,1.52,.31-.01,.6-.02,.82-.03,.27-.01,.46-.02,.5-.02,.04,0,.17,0,.37,.01,.24,0,.6,.02,1.01,.04-.41-.46-.47-1.1-.52-1.52-.15-1.24-.15-3.48-.15-6.33v-5.09c0-4.52,0-5.34,.06-6.28,.03-.59,.13-1.16,.47-1.57-.27,0-.53,.02-.74,.03-.27,.01-.46,.02-.5,.02s-.22,0-.48-.02c-.22,0-.49-.02-.79-.03Z"/></g><g><path class="c" d="M320.52,16.64c0-4.51,0-5.32-.06-6.25-.06-.98-.29-1.45-1.24-1.65-.2-.06-.58-.06-.84-.09-.2-.03-.38-.06-.38-.17,0-.17,.14-.23,.46-.23,.67,0,1.45,0,3.27,.09,.2,0,5.96,0,6.62-.03,.64-.03,1.16-.09,1.33-.17,.17-.09,.23-.12,.32-.12s.12,.12,.12,.26c0,.2-.17,.55-.23,1.36-.03,.43-.06,.98-.12,1.74-.03,.29-.12,.49-.23,.49-.17,0-.23-.14-.23-.38,0-.38-.06-.72-.15-.96-.2-.67-.81-.96-2.08-1.07-.49-.06-3.65-.09-3.96-.09-.12,0-.17,.09-.17,.29v7.99c0,.2,.03,.29,.17,.29,.38,0,3.93,0,4.6-.06,.78-.06,1.16-.14,1.45-.49,.15-.17,.23-.29,.35-.29,.09,0,.14,.06,.14,.23s-.14,.67-.23,1.62c-.09,.9-.09,1.56-.12,1.97-.03,.29-.09,.43-.2,.43-.17,0-.2-.23-.2-.46,0-.26-.03-.55-.12-.81-.12-.43-.46-.84-1.5-.96-.78-.09-3.65-.14-4.14-.14-.14,0-.2,.09-.2,.2v2.54c0,.98-.03,4.34,0,4.95,.06,1.19,.23,1.82,.96,2.11,.49,.2,1.27,.26,2.4,.26,.87,0,1.82-.03,2.6-.26,.93-.29,1.24-.9,1.48-2.14,.06-.32,.12-.43,.26-.43,.17,0,.17,.23,.17,.43,0,.23-.23,2.2-.38,2.81-.2,.75-.43,.75-1.56,.75-2.14,0-3.1-.06-4.22-.09-1.16-.03-2.49-.09-3.62-.09-.69,0-1.39,.12-2.14,.09-.32,0-.46-.06-.46-.23,0-.09,.14-.14,.32-.17,.29-.03,.46-.03,.67-.09,.61-.14,.98-.55,1.04-2.72,.03-1.13,.06-2.6,.06-5.18v-5.09Z"/><path class="c" d="M328.88,30.71c-1.59,0-2.53-.03-3.38-.06l-1.97-.06c-1.16-.04-2.28-.09-3.37-.01-.41,.03-.83,.06-1.28,.04h0c-.85,0-.94-.51-.94-.73,0-.16,.07-.55,.73-.67l.24-.02c.14-.01,.25-.02,.37-.05,.28-.07,.62-.15,.68-2.25,.03-1.12,.06-2.6,.06-5.17v-5.09c0-4.5,0-5.31-.06-6.22-.05-.85-.19-1.05-.85-1.19-.11-.03-.32-.04-.47-.05-.12,0-.23-.01-.33-.03-.24-.03-.82-.12-.82-.67,0-.22,.09-.73,.96-.73,.68,0,1.46,0,3.29,.09,2.19,0,6.06,0,6.58-.03,.74-.03,1.07-.09,1.14-.12,.2-.1,.33-.17,.53-.17,.06,0,.62,.02,.62,.76,0,.14-.03,.26-.07,.42-.05,.21-.13,.51-.16,.97l-.03,.42c-.02,.36-.05,.79-.09,1.31-.09,.86-.54,.95-.73,.95-.34,0-.73-.23-.73-.88,0-.35-.06-.63-.11-.78-.1-.31-.3-.62-1.66-.75-.39-.05-2.67-.08-3.59-.08v7.56c1.81,0,3.78-.02,4.23-.06,.78-.06,.96-.14,1.11-.31,.19-.23,.39-.47,.73-.47,.32,0,.64,.23,.64,.73,0,.08-.02,.22-.06,.43-.05,.26-.12,.66-.17,1.24-.06,.59-.08,1.07-.09,1.45,0,.2-.01,.37-.02,.51-.07,.75-.42,.9-.7,.9-.21,0-.7-.09-.7-.96,0-.25-.03-.48-.09-.65-.05-.17-.14-.51-1.09-.62-.65-.07-2.9-.13-3.78-.14v3.52c-.01,1.36-.02,3.22,0,3.65,.06,1.24,.25,1.51,.64,1.67,.48,.2,1.39,.22,2.22,.22s1.75-.03,2.46-.24c.67-.21,.91-.58,1.13-1.75,.04-.23,.15-.84,.75-.84,.31,0,.67,.16,.67,.93,0,.29-.24,2.3-.39,2.92-.31,1.14-.92,1.14-2.05,1.14Zm-7.84-1.17c.79,0,1.67,.03,2.52,.05l1.98,.06c.83,.03,1.76,.06,3.34,.06q.98,0,1.08-.38c.03-.14,.07-.38,.12-.65-.25,.26-.58,.46-1.02,.6-.84,.25-1.82,.28-2.75,.28-1.34,0-2.07-.08-2.59-.3-1.07-.43-1.21-1.45-1.26-2.55-.02-.45-.01-2.25,0-3.7v-3.82c0-.41,.3-.7,.71-.7,.43,0,3.35,.05,4.19,.15,.7,.08,1.22,.29,1.56,.64,0-.12,.02-.24,.03-.37,.03-.31,.06-.57,.09-.79-.37,.18-.79,.23-1.27,.26-.63,.06-3.71,.06-4.64,.06-.16,0-.67-.06-.67-.79v-7.99c0-.58,.36-.79,.67-.79,.03,0,3.45,.02,4.02,.09,.89,.08,1.76,.25,2.23,.88l.02-.25c.03-.39,.08-.69,.13-.91-.23,.04-.58,.08-1.14,.11-.66,.03-6.04,.03-6.65,.03-.51-.02-.94-.04-1.31-.05,.37,.38,.5,.91,.54,1.58,.06,.94,.06,1.75,.06,6.28v5.09c0,2.58-.03,4.06-.06,5.19-.04,1.33-.19,2.15-.54,2.63,.21-.01,.41-.02,.62-.02Z"/></g><g><path class="c" d="M334.99,29.74c-.41-.2-.43-.32-.43-1.1,0-1.45,.12-2.6,.14-3.07,.03-.32,.09-.46,.23-.46,.17,0,.2,.09,.2,.32,0,.26,0,.67,.09,1.07,.43,2.14,2.34,2.95,4.28,2.95,2.78,0,4.14-2,4.14-3.85,0-2-.84-3.15-3.33-5.21l-1.3-1.07c-3.07-2.52-3.76-4.31-3.76-6.28,0-3.1,2.31-5.21,5.99-5.21,1.13,0,1.97,.12,2.69,.29,.55,.12,.78,.14,1.01,.14s.29,.06,.29,.2-.12,1.1-.12,3.07c0,.46-.06,.67-.2,.67-.17,0-.2-.14-.23-.38-.03-.35-.2-1.13-.38-1.45s-.96-1.53-3.62-1.53c-2,0-3.56,1.24-3.56,3.36,0,1.65,.75,2.69,3.53,4.86l.81,.64c3.41,2.69,4.22,4.48,4.22,6.8,0,1.19-.46,3.38-2.46,4.8-1.24,.87-2.81,1.22-4.37,1.22-1.36,0-2.69-.2-3.88-.78Z"/><path class="c" d="M338.87,31.02c-1.61,0-2.95-.27-4.1-.83h0c-.68-.34-.71-.75-.71-1.55,0-1.18,.08-2.17,.12-2.75l.02-.34c.06-.62,.3-.93,.73-.93,.21,0,.7,.08,.7,.82,0,.24,0,.61,.08,.97,.47,2.31,2.81,2.55,3.79,2.55,2.39,0,3.64-1.68,3.64-3.35,0-1.75-.68-2.78-3.14-4.82l-1.3-1.07c-3.27-2.69-3.94-4.61-3.94-6.67,0-3.41,2.61-5.71,6.49-5.71,1.05,0,1.94,.1,2.81,.3,.52,.11,.71,.13,.9,.13,.73,0,.79,.54,.79,.7,0,.04,0,.12-.01,.24-.03,.39-.1,1.29-.1,2.82,0,.32,0,1.17-.7,1.17-.62,0-.7-.61-.73-.81-.03-.35-.2-1.05-.32-1.27-.16-.3-.87-1.27-3.18-1.27-1.52,0-3.06,.88-3.06,2.86,0,1.37,.5,2.25,3.34,4.47l.81,.64c3.26,2.57,4.42,4.45,4.42,7.19,0,1.6-.7,3.81-2.67,5.21-1.23,.86-2.84,1.31-4.66,1.31Zm-3.65-1.73c1.01,.49,2.2,.73,3.65,.73,1.62,0,3.03-.39,4.08-1.13,2.14-1.52,2.25-3.92,2.25-4.39,0-2.09-.64-3.73-4.03-6.41l-.81-.64c-2.89-2.25-3.72-3.43-3.72-5.25,0-1.63,.86-2.91,2.23-3.5-1.94,.68-3.11,2.23-3.11,4.34,0,1.77,.61,3.45,3.58,5.89l-.7,1.07c2.43,2,5.51,3.29,5.51,5.59,0,2.16-1.59,4.35-4.64,4.35-2.12,0-3.7-.85-4.43-2.33-.01,.32-.02,.66-.02,1.02,0,.17,0,.51,.03,.59,0,0,.02,.01,.12,.06Zm5.53-20.94c2.47,.02,3.51,1.03,3.9,1.62,.02-.56,.05-.96,.07-1.21-.23-.02-.49-.06-.88-.15-.8-.19-1.62-.28-2.59-.28-.17,0-.33,0-.49,.01Z"/></g><g><path class="c" d="M362.85,27.4c-2.81-2.52-3.5-5.82-3.5-8.56,0-1.94,.67-5.32,3.24-7.9,1.74-1.74,4.37-3.1,8.82-3.1,1.16,0,2.78,.09,4.19,.35,1.1,.2,2,.29,3.07,.43,.2,.03,.26,.14,.26,.32,0,.23-.09,.58-.14,1.62-.06,.95-.06,2.54-.09,2.98-.03,.43-.09,.61-.26,.61-.2,0-.23-.2-.23-.61,0-1.13-.46-2.31-1.21-2.95-1.01-.87-3.24-1.65-5.79-1.65-3.85,0-5.64,1.13-6.65,2.11-2.11,2.03-2.6,4.6-2.6,7.55,0,5.53,4.25,10.59,10.44,10.59,2.17,0,3.88-.26,5.03-1.45,.61-.64,.98-1.91,1.07-2.43,.06-.32,.12-.43,.29-.43,.14,0,.2,.2,.2,.43,0,.2-.35,2.72-.64,3.7-.17,.55-.23,.61-.75,.84-1.16,.46-3.36,.67-5.21,.67-4.34,0-7.26-1.07-9.55-3.12Z"/><path class="c" d="M372.39,31.02c-4.27,0-7.41-1.03-9.88-3.25h0c-2.43-2.18-3.67-5.19-3.67-8.94,0-2.35,.89-5.75,3.39-8.25,2.18-2.18,5.18-3.24,9.18-3.24,.7,0,2.53,.04,4.28,.36,.78,.14,1.45,.23,2.15,.32l.89,.12c.44,.06,.69,.37,.69,.81,0,.11-.01,.23-.04,.42-.03,.24-.08,.61-.11,1.23-.03,.55-.05,1.3-.06,1.93,0,.47-.02,.87-.03,1.06-.02,.32-.07,1.07-.76,1.07-.73,0-.73-.8-.73-1.11,0-1.01-.42-2.04-1.04-2.57-.86-.74-2.94-1.53-5.46-1.53-2.88,0-4.94,.64-6.3,1.97-2.16,2.07-2.45,4.8-2.45,7.19,0,4.96,3.72,10.09,9.94,10.09,2.42,0,3.78-.38,4.68-1.3,.49-.51,.85-1.66,.93-2.16,.04-.24,.15-.85,.78-.85,.32,0,.7,.24,.7,.93,0,.28-.36,2.84-.66,3.84-.22,.69-.37,.86-1.03,1.16-1.31,.52-3.65,.71-5.41,.71Zm-.98-22.68c-3.72,0-6.49,.96-8.47,2.95-2.28,2.28-3.09,5.39-3.09,7.54,0,3.45,1.12,6.21,3.33,8.19h0c2.31,2.07,5.15,3,9.21,3,2.09,0,4.06-.25,5.02-.63q.34-.15,.46-.53c.09-.3,.18-.75,.27-1.24-.11,.17-.23,.33-.36,.46-1.37,1.41-3.4,1.6-5.4,1.6-6.85,0-10.94-5.64-10.94-11.09,0-2.6,.33-5.58,2.76-7.91,1.56-1.51,3.85-2.25,7-2.25,2.8,0,5.08,.89,6.11,1.77,.38,.32,.7,.76,.93,1.26,0-.34,.02-.67,.04-.94,.04-.65,.08-1.04,.11-1.29,0-.05,.01-.1,.02-.14l-.7-.09c-.72-.09-1.41-.18-2.21-.32-1.16-.21-2.69-.34-4.1-.34Z"/></g><g><path class="c" d="M386.59,21.58c-.14,0-.23,.09-.29,.23l-1.74,5.12c-.26,.72-.4,1.42-.4,1.94,0,.58,.55,.84,1.04,.84h.26c.29,0,.38,.06,.38,.17,0,.17-.26,.23-.52,.23-.69,0-1.85-.09-2.17-.09s-1.91,.09-3.27,.09c-.38,0-.55-.06-.55-.23,0-.12,.14-.17,.41-.17,.2,0,.46-.03,.69-.06,1.33-.17,1.91-1.27,2.43-2.72l6.57-17.97c.35-.96,.46-1.13,.64-1.13s.29,.15,.64,1.04c.43,1.1,4.98,13.05,6.74,17.45,1.04,2.58,1.88,3.04,2.49,3.21,.43,.15,.9,.17,1.13,.17,.17,0,.32,.03,.32,.17,0,.17-.26,.23-.58,.23-.43,0-2.55,0-4.54-.06-.55-.03-.87-.03-.87-.2,0-.12,.09-.17,.2-.2,.17-.06,.35-.32,.17-.78l-2.69-7.12c-.06-.12-.12-.17-.26-.17h-6.22Zm5.84-1.04c.14,0,.14-.09,.12-.2l-2.75-7.81c-.14-.43-.29-.43-.43,0l-2.55,7.81c-.06,.15,0,.2,.09,.2h5.53Z"/><path class="c" d="M400.79,30.62c-.43,0-2.55,0-4.56-.06h-.15c-.54-.04-1.21-.07-1.21-.7,0-.23,.12-.51,.45-.64,0-.04-.01-.09-.04-.16l-2.63-6.97h-5.92l-1.7,5.01c-.24,.67-.38,1.32-.38,1.78,0,.33,.54,.34,.54,.34h.26c.79,0,.88,.47,.88,.67,0,.12-.05,.73-1.02,.73-.42,0-1.01-.03-1.49-.06-.3-.02-.56-.03-.68-.03-.1,0-.33,0-.65,.02-.67,.03-1.7,.07-2.62,.07-.87,0-1.05-.4-1.05-.73,0-.11,.04-.67,.91-.67,.18,0,.42-.03,.63-.05,1.02-.13,1.51-.98,2.02-2.39l6.57-17.97c.33-.91,.53-1.46,1.11-1.46s.79,.54,1.1,1.36c.12,.31,.57,1.49,1.2,3.12,1.6,4.18,4.27,11.17,5.54,14.32,1.05,2.6,1.83,2.82,2.16,2.92,.43,.14,.87,.15,.99,.15,.78,0,.82,.56,.82,.67,0,.22-.11,.73-1.08,.73Zm-21.18-.4h0Zm5.96,0h0Zm10.71-.66c.92,.03,1.87,.04,2.67,.05-.58-.44-1.25-1.3-1.97-3.09-1.27-3.16-3.94-10.15-5.54-14.33-.62-1.63-1.07-2.81-1.2-3.12-.06-.16-.12-.29-.16-.4-.05,.12-.11,.28-.18,.47l-6.57,17.97c-.33,.91-.73,1.87-1.47,2.47,.22,0,.43-.02,.61-.02,.33-.01,.58-.02,.68-.02,.13,0,.39,.01,.71,.03-.12-.19-.2-.42-.2-.69,0-.58,.15-1.33,.43-2.11l1.73-5.11c.21-.52,.6-.57,.76-.57h6.22c.32,0,.56,.15,.71,.45l2.71,7.16c.14,.38,.12,.66,.05,.86Zm-3.85-8.52h-5.53c-.21,0-.4-.09-.51-.26-.07-.1-.17-.32-.04-.63l2.54-7.78c.06-.17,.22-.67,.69-.67s.64,.5,.69,.67l2.75,7.8c.04,.14,.1,.41-.08,.64-.07,.09-.22,.23-.5,.23Zm-5.14-.55h0Zm.15-.45h4.47l-2.32-6.6-2.15,6.6Z"/></g><g><path class="c" d="M427.06,26.39c.12,1.04,.32,2.66,1.56,3.07,.84,.26,1.5,.26,1.79,.26,.14,0,.32,.03,.32,.17,0,.17-.09,.23-.43,.23-.64,0-3.93-.09-5-.17-.67-.06-.81-.14-.81-.29,0-.12,.06-.14,.2-.2,.2-.09,.17-.52,.12-1.04l-1.39-15.1-7.17,15.22c-.61,1.27-.7,1.53-.96,1.53-.2,0-.35-.29-.9-1.33-.75-1.42-3.24-6.42-3.39-6.71-.26-.52-3.59-7.67-3.91-8.45l-1.19,13.63c-.03,.46-.06,.87-.06,1.36,0,.72,.35,.96,.78,1.04,.49,.12,.87,.12,1.04,.12s.29,.06,.29,.14c0,.2-.14,.26-.43,.26-1.07,0-2.55-.09-2.78-.09-.26,0-1.65,.09-2.43,.09-.29,0-.49-.03-.49-.23,0-.12,.14-.17,.29-.17,.23,0,.43,0,.87-.09,.96-.17,1.01-1.21,1.16-2.4l2.08-18.8c.03-.32,.14-.58,.32-.58s.29,.12,.43,.43l8.85,18.2,8.5-18.17c.12-.26,.23-.46,.43-.46s.29,.23,.35,.78l1.94,17.76Z"/><path class="c" d="M430.3,30.62c-.63,0-3.96-.09-5.04-.18-.48-.04-1.27-.11-1.27-.79,0-.34,.2-.5,.36-.6,0-.11,0-.31-.04-.59l-1.22-13.29-6.59,13.99c-.49,1.04-.66,1.39-1.2,1.39-.5,0-.68-.34-1.28-1.48l-.06-.12c-.64-1.21-2.56-5.05-3.19-6.31l-.2-.41c-.21-.41-2.03-4.33-3.13-6.72l-1.03,11.86c-.02,.39-.05,.74-.05,1.17,0,.45,.14,.5,.38,.55,.45,.11,.78,.11,.94,.11,.54,0,.79,.33,.79,.64,0,.23-.09,.76-.93,.76-.74,0-1.67-.04-2.26-.07-.26-.01-.45-.02-.52-.02-.09,0-.33,.01-.63,.03-.55,.03-1.3,.06-1.8,.06-.86,0-.99-.46-.99-.73,0-.39,.33-.67,.79-.67,.22,0,.38,0,.77-.08,.49-.09,.59-.57,.73-1.74l.03-.23,2.08-18.8c.07-.75,.47-1.02,.82-1.02,.56,0,.79,.51,.89,.73l8.39,17.24,8.06-17.22c.11-.24,.34-.75,.89-.75,.71,0,.8,.83,.84,1.23l1.94,17.76c.13,1.13,.33,2.36,1.22,2.65,.76,.24,1.38,.24,1.64,.24,.65,0,.82,.42,.82,.67,0,.33-.16,.73-.93,.73Zm-25.55-1.09c.08,0,.28,0,.57,.02,.1,0,.21,0,.32,.01-.19-.26-.29-.59-.29-1.01,0-.45,.02-.82,.05-1.23v-.16l1.38-15.7,.78,1.92c.3,.75,3.62,7.88,3.89,8.41l.21,.41c.63,1.26,2.54,5.09,3.17,6.29l.06,.12c.16,.29,.29,.55,.4,.74,.08-.16,.19-.38,.3-.61l8.16-17.3,1.56,16.93c.04,.35,.08,.76-.01,1.08h.05c.5,.04,1.48,.08,2.45,.12-.96-.77-1.12-2.25-1.22-3.12h0l-1.92-17.6-8.8,18.8-9.16-18.82-2.07,18.7c-.09,.73-.18,1.52-.59,2.05,.02,0,.03,0,.05,0,.32-.02,.58-.03,.68-.03Z"/></g><g><path class="c" d="M434.59,16.64c0-4.51,0-5.32-.06-6.25-.06-.98-.29-1.45-1.24-1.65-.23-.06-.72-.09-.98-.09-.12,0-.23-.06-.23-.17,0-.17,.14-.23,.46-.23,1.3,0,3.04,.09,3.27,.09,.64,0,2.31-.09,3.64-.09,3.62,0,4.92,1.21,5.38,1.65,.64,.61,1.45,1.91,1.45,3.79,0,3.76-3.01,6.54-7.12,6.54-.14,0-.46,0-.61-.03-.14,0-.32-.06-.32-.2,0-.23,.17-.26,.78-.26,2.81,0,5-1.91,5-4.95,0-.72-.09-2.66-1.62-4.22-1.53-1.56-3.3-1.45-3.96-1.45-.49,0-.98,.06-1.24,.17-.17,.06-.23,.26-.23,.55v11.89c0,2.78,0,5.06,.15,6.28,.09,.84,.26,1.48,1.13,1.59,.41,.06,1.04,.12,1.3,.12,.17,0,.23,.09,.23,.17,0,.14-.14,.23-.46,.23-1.59,0-3.41-.09-3.56-.09-.09,0-1.91,.09-2.78,.09-.32,0-.46-.06-.46-.23,0-.09,.06-.17,.23-.17,.26,0,.61-.06,.87-.12,.58-.12,.72-.75,.84-1.59,.14-1.21,.14-3.5,.14-6.28v-5.09Z"/><path class="c" d="M439.31,30.62c-1.23,0-2.6-.05-3.23-.08-.18,0-.29-.01-.33-.01h-.31c-.59,.04-1.81,.09-2.47,.09-.87,0-.96-.51-.96-.73,0-.33,.25-.67,.73-.67,.18,0,.47-.04,.76-.1,.22-.04,.34-.36,.45-1.17,.14-1.18,.14-3.51,.14-6.21v-5.09c0-4.5,0-5.31-.06-6.22-.05-.85-.19-1.05-.85-1.19-.18-.04-.62-.08-.88-.08-.42,0-.73-.29-.73-.67,0-.22,.09-.73,.96-.73,.92,0,2.06,.04,2.73,.07,.27,0,.47,.02,.54,.02,.26,0,.68-.01,1.19-.03,.75-.02,1.66-.05,2.45-.05,3.82,0,5.25,1.34,5.72,1.78,.38,.36,1.61,1.72,1.61,4.16,0,4.01-3.27,7.04-7.62,7.04-.31,0-.55,0-.71-.04h-.02c-.37,0-.7-.29-.7-.69,0-.76,.77-.76,1.28-.76,2.65,0,4.5-1.83,4.5-4.45,0-1.55-.51-2.89-1.48-3.87-1.29-1.32-2.76-1.3-3.47-1.3h-.13c-.44,0-.79,.05-.97,.11,0,.03,0,.07,0,.12v11.89c0,2.7,0,5.03,.14,6.22,.1,.92,.27,1.1,.7,1.16,.4,.06,1,.11,1.24,.11,.48,0,.73,.34,.73,.67,0,.12-.05,.73-.96,.73Zm-4.81-21.83c.38,.38,.5,.92,.54,1.57,.06,.94,.06,1.75,.06,6.28v5.09c0,2.85,0,5.09-.15,6.34-.06,.47-.15,1.08-.46,1.52,.36-.01,.69-.03,.92-.04,.2,0,.32-.01,.35-.01,.04,0,.17,0,.37,.01,.25,0,.6,.02,1.01,.04-.41-.46-.47-1.11-.52-1.52-.15-1.24-.15-3.48-.15-6.33V9.84c0-.69,.31-.94,.58-1.02h0c-.52,0-.96,.02-1.22,.02-.07,0-.28,0-.57-.02-.21,0-.46-.02-.74-.03Zm5.72-.02c.79,.18,1.7,.58,2.54,1.44,1.15,1.17,1.76,2.76,1.76,4.57,0,1.6-.56,2.96-1.53,3.92,1.72-1.06,2.79-2.85,2.79-5.02,0-1.62-.67-2.83-1.29-3.43-.4-.38-1.43-1.34-4.27-1.49Zm-2.81,.97h0Z"/></g><g><path class="c" d="M451.71,20.69c0,4.17,.93,5.96,2.17,7.15,1.42,1.33,2.72,1.59,4.37,1.59,1.76,0,3.5-.84,4.54-2.08,1.33-1.65,1.68-4.11,1.68-7.09v-3.62c0-4.51,0-5.32-.06-6.25-.06-.98-.29-1.45-1.24-1.65-.23-.06-.72-.09-.98-.09-.12,0-.23-.06-.23-.17,0-.17,.14-.23,.46-.23,1.3,0,2.89,.09,3.07,.09,.2,0,1.56-.09,2.43-.09,.32,0,.46,.06,.46,.23,0,.12-.12,.17-.23,.17-.2,0-.38,.03-.72,.09-.78,.17-1.01,.64-1.07,1.65-.06,.93-.06,1.74-.06,6.25v3.1c0,3.12-.35,6.6-2.66,8.65-2.08,1.85-4.25,2.14-5.96,2.14-.98,0-3.91-.12-5.96-2.05-1.42-1.36-2.52-3.38-2.52-7.61v-4.22c0-4.51,0-5.32-.06-6.25-.06-.98-.29-1.45-1.24-1.65-.23-.06-.72-.09-.98-.09-.12,0-.23-.06-.23-.17,0-.17,.14-.23,.46-.23,1.3,0,3.07,.09,3.33,.09s2-.09,2.86-.09c.32,0,.46,.06,.46,.23,0,.12-.12,.17-.23,.17-.2,0-.38,.03-.72,.09-.78,.12-1.01,.64-1.07,1.65-.06,.93-.06,1.74-.06,6.25v4.05Z"/><path class="c" d="M457.67,31.02c-1.49,0-4.28-.28-6.3-2.19-1.85-1.77-2.67-4.23-2.67-7.97v-4.22c0-4.5,0-5.31-.06-6.22-.05-.85-.19-1.05-.85-1.19-.18-.04-.62-.08-.88-.08-.42,0-.73-.29-.73-.67,0-.22,.09-.73,.96-.73s2.03,.04,2.73,.07c.3,.01,.52,.02,.6,.02,.09,0,.36-.01,.71-.02,.66-.03,1.59-.06,2.16-.06,.87,0,.96,.51,.96,.73,0,.38-.31,.67-.73,.67-.18,0-.33,.03-.63,.08-.38,.06-.61,.16-.67,1.19-.06,.91-.06,1.72-.06,6.22v4.05c0,4.29,1.02,5.83,2.01,6.78,1.29,1.21,2.46,1.45,4.02,1.45s3.17-.73,4.16-1.9c1.09-1.35,1.56-3.38,1.56-6.77v-3.62c0-4.5,0-5.31-.06-6.22-.05-.85-.19-1.05-.85-1.19-.18-.04-.62-.08-.88-.08-.42,0-.73-.29-.73-.67,0-.22,.09-.73,.96-.73,.96,0,2.08,.05,2.68,.07,.21,0,.35,.01,.39,.01,.06,0,.24,0,.48-.02,.53-.03,1.35-.07,1.95-.07,.87,0,.96,.51,.96,.73,0,.38-.31,.67-.73,.67-.18,0-.33,.03-.63,.08-.42,.09-.61,.23-.67,1.19-.06,.91-.06,1.72-.06,6.22v3.1c0,3.03-.32,6.8-2.83,9.02-2.29,2.03-4.69,2.27-6.29,2.27Zm-8.57-22.24c.37,.38,.5,.92,.54,1.57,.06,.94,.06,1.75,.06,6.28v4.22c0,4.42,1.26,6.19,2.36,7.25,1.77,1.67,4.28,1.92,5.61,1.92,1.56,0,3.62-.23,5.63-2.02,2.21-1.96,2.49-5.45,2.49-8.28v-3.1c0-4.52,0-5.34,.06-6.28,.04-.64,.15-1.18,.47-1.56-.11,0-.21,.01-.31,.01-.27,.01-.46,.02-.53,.02-.05,0-.2,0-.43-.02-.18,0-.42-.02-.68-.03,.37,.38,.5,.92,.54,1.57,.06,.94,.06,1.75,.06,6.28v3.62c0,3.63-.54,5.85-1.79,7.4-1.17,1.4-3.06,2.27-4.93,2.27-1.77,0-3.18-.29-4.71-1.73-1.63-1.56-2.33-3.8-2.33-7.51v-4.05c0-4.52,0-5.34,.06-6.28,.03-.57,.12-1.15,.46-1.57-.18,0-.36,.01-.52,.02-.37,.01-.65,.03-.75,.03-.08,0-.31,0-.63-.02-.21,0-.46-.02-.74-.03Z"/></g><g><path class="c" d="M470.23,29.74c-.4-.2-.43-.32-.43-1.1,0-1.45,.12-2.6,.14-3.07,.03-.32,.09-.46,.23-.46,.17,0,.2,.09,.2,.32,0,.26,0,.67,.09,1.07,.43,2.14,2.34,2.95,4.28,2.95,2.78,0,4.14-2,4.14-3.85,0-2-.84-3.15-3.33-5.21l-1.3-1.07c-3.07-2.52-3.76-4.31-3.76-6.28,0-3.1,2.31-5.21,5.99-5.21,1.13,0,1.97,.12,2.69,.29,.55,.12,.78,.14,1.01,.14s.29,.06,.29,.2-.12,1.1-.12,3.07c0,.46-.06,.67-.2,.67-.17,0-.2-.14-.23-.38-.03-.35-.2-1.13-.38-1.45-.17-.32-.96-1.53-3.62-1.53-2,0-3.56,1.24-3.56,3.36,0,1.65,.75,2.69,3.53,4.86l.81,.64c3.41,2.69,4.22,4.48,4.22,6.8,0,1.19-.46,3.38-2.46,4.8-1.24,.87-2.81,1.22-4.37,1.22-1.36,0-2.69-.2-3.88-.78Z"/><path class="c" d="M474.11,31.02c-1.61,0-2.95-.27-4.1-.83h0c-.68-.34-.71-.75-.71-1.55,0-1.19,.08-2.17,.12-2.76l.02-.33c.06-.62,.3-.93,.73-.93,.26,0,.7,.11,.7,.82,0,.24,0,.61,.08,.97,.47,2.31,2.81,2.55,3.79,2.55,2.39,0,3.64-1.68,3.64-3.35,0-1.75-.68-2.78-3.15-4.82l-1.3-1.07c-3.27-2.69-3.94-4.61-3.94-6.66,0-3.41,2.61-5.71,6.49-5.71,1.05,0,1.95,.1,2.81,.3,.52,.11,.71,.13,.9,.13,.73,0,.79,.54,.79,.7,0,.04,0,.12-.01,.24-.03,.39-.1,1.29-.1,2.82,0,.32,0,1.17-.7,1.17-.42,0-.66-.27-.73-.82-.03-.34-.2-1.05-.32-1.27-.16-.3-.87-1.27-3.18-1.27-1.52,0-3.06,.88-3.06,2.86,0,1.37,.5,2.25,3.34,4.47l.81,.64c3.26,2.57,4.42,4.45,4.42,7.19,0,1.6-.7,3.81-2.67,5.21-1.23,.86-2.84,1.31-4.66,1.31Zm-3.66-1.73c1.01,.49,2.2,.73,3.66,.73,1.62,0,3.03-.39,4.08-1.13,2.14-1.52,2.25-3.92,2.25-4.39,0-2.09-.64-3.73-4.03-6.41l-.81-.64c-2.89-2.25-3.72-3.43-3.72-5.25,0-1.63,.86-2.91,2.23-3.5-1.94,.68-3.11,2.23-3.11,4.34,0,1.77,.61,3.45,3.58,5.89l1.3,1.07c2.43,2,3.51,3.29,3.51,5.59,0,2.16-1.59,4.35-4.64,4.35-2.12,0-3.7-.85-4.43-2.33-.01,.32-.02,.66-.02,1.02,0,.17,0,.51,.03,.59,0,0,.02,.01,.12,.06Zm5.53-20.94c2.48,.02,3.51,1.03,3.9,1.62,.02-.56,.05-.96,.07-1.21-.23-.02-.49-.06-.88-.15-.8-.19-1.61-.28-2.59-.28-.17,0-.33,0-.49,.01Z"/></g><g><path class="c" d="M500.88,16.64c0-4.51,0-5.32-.06-6.25-.06-.98-.29-1.45-1.24-1.65-.17-.03-.46-.03-.72-.06-.26-.03-.49-.06-.49-.2,0-.17,.14-.23,.46-.23,1.13,0,2.23,.09,3.27,.09,.58,0,6.45,0,7.12-.03,.67-.03,1.19-.03,1.42-.17,.09-.06,.2-.12,.26-.12,.12,0,.17,.12,.17,.26s-.12,.55-.17,.9c-.12,.84-.12,1.3-.17,2.11,0,.35-.14,.58-.26,.58-.14,0-.17-.12-.2-.38-.03-.41-.14-1.1-.55-1.45-.35-.29-.87-.52-1.71-.55-1.48-.03-2.95-.06-4.43-.09-.17,0-.26,.09-.26,.32v7.99c0,.17,.03,.26,.2,.26,1.19,0,2.83,0,4.02-.03,1.53-.03,1.91-.06,2.31-.55,.14-.17,.2-.29,.32-.29s.14,.09,.14,.23c0,.17-.14,.67-.23,1.62-.09,.87-.09,1.56-.12,2-.03,.32-.06,.49-.2,.49-.17,0-.2-.2-.23-.49-.06-.64-.14-1.65-1.65-1.85-.72-.09-3.88-.09-4.37-.09-.14,0-.2,.06-.2,.26v2.46c0,2.46,0,4.51,.09,5.84,.09,1.3,.4,1.94,1.19,2.03,.38,.06,.87,.09,1.19,.12,.26,.03,.35,.09,.35,.2,0,.15-.14,.2-.46,.2-1.62,0-3.41-.09-3.56-.09h-.26c-.58,.03-1.88,.09-2.58,.09-.32,0-.46-.06-.46-.23,0-.09,.06-.14,.32-.17,.29-.03,.55-.06,.75-.12,.61-.17,.81-.61,.9-1.88,.09-1.24,.12-3.27,.12-5.99v-5.09Z"/><path class="c" d="M505.66,30.62c-1.25,0-2.61-.05-3.24-.08-.17,0-.29-.01-.32-.01h-.26c-.56,.03-1.87,.09-2.58,.09-.87,0-.96-.51-.96-.73s.1-.6,.76-.67c.25-.02,.51-.05,.67-.1,.24-.07,.45-.13,.54-1.43,.08-1.13,.11-2.97,.11-5.96v-5.09c0-4.5,0-5.31-.06-6.22-.05-.85-.19-1.05-.85-1.19-.06,0-.16-.01-.28-.02-.13,0-.27-.02-.4-.03-.28-.03-.94-.11-.94-.7,0-.22,.09-.73,.96-.73,.58,0,1.16,.02,1.72,.04,.53,.02,1.05,.04,1.55,.04,3.11,0,6.61,0,7.09-.03h.25c.36-.02,.81-.04,.93-.1,.18-.12,.37-.19,.52-.19,.33,0,.67,.26,.67,.76,0,.13-.03,.28-.09,.54-.03,.14-.07,.29-.09,.44-.08,.57-.1,.97-.13,1.44l-.04,.63c0,.59-.32,1.04-.76,1.04-.61,0-.68-.62-.7-.82-.04-.53-.18-.95-.38-1.12-.32-.27-.78-.41-1.4-.43l-4.17-.08v7.56c1.15,0,2.62,0,3.71-.03,1.55-.03,1.7-.08,1.94-.37l.08-.09c.12-.15,.29-.38,.63-.38,.24,0,.64,.15,.64,.73,0,.08-.02,.22-.06,.43-.05,.26-.12,.66-.17,1.24-.06,.58-.08,1.08-.09,1.48,0,.2-.01,.37-.02,.51-.03,.3-.09,.96-.7,.96s-.7-.66-.73-.94c-.06-.65-.11-1.26-1.22-1.41-.41-.05-1.9-.08-4-.08v2.22c0,2.41,0,4.5,.08,5.81,.1,1.49,.5,1.53,.74,1.56,.29,.04,.62,.07,.9,.09l.28,.02c.7,.08,.8,.47,.8,.7,0,.21-.09,.7-.96,.7Zm-3.56-1.09s.16,0,.36,.01c.25,0,.61,.02,1.04,.04-.5-.58-.57-1.5-.6-1.97-.09-1.35-.09-3.45-.09-5.88v-2.46c0-.56,.36-.76,.7-.76,1.37,0,3.77,.01,4.43,.09,.81,.11,1.3,.42,1.6,.8,.01-.16,.03-.33,.04-.5,.03-.28,.06-.52,.09-.73-.47,.23-1.09,.25-2.12,.27-1.19,.03-2.84,.03-4.03,.03-.12,0-.7-.04-.7-.76v-7.99c0-.6,.41-.82,.76-.82l4.44,.09c.86,.03,1.51,.25,2.02,.67,.11,.09,.2,.2,.28,.31,.02-.26,.05-.53,.09-.86,.02-.13,.05-.27,.08-.39-.27,.05-.6,.07-.99,.08h-.25c-.63,.04-5.62,.04-7.14,.04-.43,0-.86-.01-1.31-.03,.37,.38,.5,.92,.53,1.56,.06,.94,.06,1.75,.06,6.28v5.09c0,3.01-.04,4.87-.12,6.02-.05,.73-.13,1.38-.48,1.83,.41-.02,.78-.03,1.03-.05h.29Z"/></g><g><path class="c" d="M515.77,16.64c0-4.51,0-5.32-.06-6.25-.06-.98-.35-1.48-.98-1.62-.32-.09-.69-.12-.9-.12-.12,0-.23-.06-.23-.17,0-.17,.15-.23,.46-.23,.96,0,2.78,.09,2.92,.09s1.97-.09,2.83-.09c.32,0,.46,.06,.46,.23,0,.12-.12,.17-.23,.17-.2,0-.38,.03-.72,.09-.78,.14-1.01,.64-1.07,1.65-.06,.93-.06,1.74-.06,6.25v5.09c0,2.78,0,5.06,.14,6.28,.09,.84,.26,1.48,1.13,1.59,.41,.06,1.01,.12,1.19,.12,.26,0,.35,.09,.35,.17,0,.14-.12,.23-.43,.23-1.59,0-3.44-.09-3.59-.09s-1.97,.09-2.84,.09c-.32,0-.46-.06-.46-.23,0-.09,.06-.17,.32-.17,.17,0,.49-.03,.75-.09,.58-.12,.75-.78,.87-1.62,.14-1.21,.14-3.5,.14-6.28v-5.09Z"/><path class="c" d="M520.58,30.62c-1.23,0-2.61-.05-3.25-.08-.18,0-.3-.01-.33-.01-.04,0-.22,0-.47,.02-.64,.03-1.75,.07-2.37,.07-.87,0-.96-.51-.96-.73,0-.07,.02-.67,.82-.67,.13,0,.41-.02,.64-.07,.23-.05,.37-.41,.48-1.2,.14-1.18,.14-3.51,.14-6.21v-5.09c0-4.5,0-5.31-.06-6.22-.06-1.04-.38-1.12-.6-1.17-.27-.07-.59-.1-.79-.1-.42,0-.73-.29-.73-.67,0-.22,.09-.73,.96-.73,.69,0,1.84,.04,2.48,.07,.24,0,.4,.02,.44,.02s.22,0,.46-.02c.64-.03,1.75-.07,2.37-.07,.87,0,.96,.51,.96,.73,0,.38-.31,.67-.73,.67-.18,0-.33,.03-.62,.08-.38,.07-.61,.16-.67,1.19-.06,.91-.06,1.72-.06,6.22v5.09c0,2.7,0,5.03,.14,6.22,.1,.92,.27,1.1,.7,1.16,.42,.06,.99,.11,1.12,.11,.67,0,.85,.42,.85,.67,0,.12-.04,.73-.93,.73Zm-4.86-21.83c.37,.44,.47,1.07,.5,1.57,.06,.94,.06,1.75,.06,6.28v5.09c0,2.85,0,5.09-.15,6.34-.06,.42-.14,1.06-.46,1.52,.3-.01,.59-.02,.82-.03,.27-.01,.46-.02,.51-.02,.04,0,.17,0,.37,.01,.24,0,.6,.02,1.01,.04-.4-.46-.47-1.1-.51-1.52-.15-1.24-.15-3.48-.15-6.33v-5.09c0-4.52,0-5.34,.06-6.28,.03-.59,.13-1.16,.47-1.57-.27,0-.53,.02-.74,.03-.27,.01-.46,.02-.5,.02s-.22,0-.48-.02c-.22,0-.49-.02-.79-.03Z"/></g><g><path class="c" d="M528.36,21.79c0,4.25,.12,6.1,.64,6.62,.46,.46,1.22,.67,3.47,.67,1.53,0,2.81-.03,3.5-.87,.38-.46,.67-1.19,.75-1.74,.03-.23,.09-.38,.26-.38,.14,0,.17,.12,.17,.43s-.2,2.05-.43,2.89c-.2,.67-.29,.78-1.82,.78-2.49,0-4.95-.17-7.75-.17-.9,0-1.76,.09-2.83,.09-.32,0-.46-.06-.46-.23,0-.09,.06-.17,.23-.17,.26,0,.61-.06,.87-.12,.58-.12,.72-.75,.84-1.59,.14-1.21,.14-3.5,.14-6.28v-5.09c0-4.51,0-5.32-.06-6.25-.06-.98-.29-1.45-1.24-1.65-.23-.06-.72-.09-.98-.09-.12,0-.23-.06-.23-.17,0-.17,.14-.23,.46-.23,1.3,0,3.12,.09,3.27,.09s2.26-.09,3.12-.09c.32,0,.46,.06,.46,.23,0,.12-.12,.17-.23,.17-.2,0-.61,.03-.96,.09-.84,.14-1.07,.64-1.13,1.65-.06,.93-.06,1.74-.06,6.25v5.15Z"/><path class="c" d="M534.9,30.71c-1.21,0-2.42-.04-3.66-.08-1.69-.06-3.45-.14-5.36-.05-.49,.02-1,.05-1.57,.05-.87,0-.96-.51-.96-.73,0-.33,.25-.67,.73-.67,.18,0,.47-.04,.76-.1,.22-.04,.34-.36,.45-1.17,.14-1.18,.14-3.51,.14-6.21v-5.09c0-4.5,0-5.31-.06-6.22-.05-.85-.19-1.05-.85-1.19-.18-.04-.62-.08-.88-.08-.42,0-.73-.29-.73-.67,0-.22,.09-.73,.96-.73,.98,0,2.26,.05,2.9,.07,.2,0,.33,.01,.37,.01,.04,0,.25,0,.53-.02,.73-.03,1.98-.07,2.6-.07,.87,0,.96,.51,.96,.73,0,.38-.31,.67-.73,.67-.16,0-.54,.02-.87,.08-.46,.08-.66,.21-.71,1.18-.06,.91-.06,1.72-.06,6.22v5.15c0,2.16,0,5.78,.49,6.27,.33,.33,.94,.52,3.12,.52,1.54,0,2.59-.05,3.12-.69,.29-.36,.56-.99,.64-1.5,.09-.69,.51-.8,.75-.8,.45,0,.67,.31,.67,.93,0,.39-.21,2.17-.45,3.03-.32,1.04-.75,1.15-2.3,1.15Zm-7.75-1.17c1.45,0,2.81,.05,4.13,.09,1.23,.04,2.42,.08,3.62,.08s1.21,0,1.34-.43c.06-.22,.12-.51,.17-.83-.02,.03-.04,.05-.06,.08-.87,1.05-2.4,1.05-3.89,1.05-2.28,0-3.21-.2-3.83-.81s-.78-2.06-.78-6.98v-5.15c0-4.52,0-5.34,.06-6.28,.03-.59,.13-1.16,.48-1.57-.25,0-.49,.02-.69,.02-.3,.01-.52,.02-.56,.02-.04,0-.19,0-.41-.01-.23,0-.55-.02-.91-.03,.38,.38,.5,.92,.54,1.57,.06,.94,.06,1.75,.06,6.28v5.09c0,2.85,0,5.09-.15,6.34-.06,.46-.15,1.07-.45,1.51,.45-.02,.88-.04,1.31-.04Z"/></g><g><path class="c" d="M563.45,26.39c.12,1.04,.32,2.66,1.56,3.07,.84,.26,1.5,.26,1.79,.26,.14,0,.32,.03,.32,.17,0,.17-.09,.23-.43,.23-.64,0-3.93-.09-5-.17-.67-.06-.81-.14-.81-.29,0-.12,.06-.14,.2-.2,.2-.09,.17-.52,.12-1.04l-1.39-15.1-7.18,15.22c-.61,1.27-.69,1.53-.95,1.53-.2,0-.35-.29-.9-1.33-.75-1.42-3.24-6.42-3.38-6.71-.26-.52-3.59-7.67-3.91-8.45l-1.19,13.63c-.03,.46-.06,.87-.06,1.36,0,.72,.35,.96,.78,1.04,.49,.12,.87,.12,1.04,.12s.29,.06,.29,.14c0,.2-.14,.26-.43,.26-1.07,0-2.55-.09-2.78-.09-.26,0-1.65,.09-2.43,.09-.29,0-.49-.03-.49-.23,0-.12,.14-.17,.29-.17,.23,0,.43,0,.87-.09,.96-.17,1.01-1.21,1.16-2.4l2.08-18.8c.03-.32,.14-.58,.32-.58s.29,.12,.43,.43l8.85,18.2,8.51-18.17c.12-.26,.23-.46,.43-.46s.29,.23,.35,.78l1.94,17.76Z"/><path class="c" d="M566.69,30.62c-.63,0-3.96-.09-5.04-.18-.48-.04-1.27-.11-1.27-.79,0-.34,.2-.5,.36-.6,0-.11,0-.31-.04-.59l-1.22-13.28-6.6,13.99c-.49,1.04-.66,1.39-1.2,1.39-.5,0-.68-.34-1.28-1.49l-.06-.11c-.31-.58-1.13-2.19-3.28-6.51l-.11-.21c-.21-.41-2.03-4.33-3.13-6.72l-1.03,11.86c-.02,.39-.05,.74-.05,1.17,0,.45,.14,.5,.38,.55,.45,.11,.78,.11,.94,.11,.54,0,.79,.33,.79,.64,0,.23-.09,.76-.93,.76-.74,0-1.67-.04-2.26-.07-.26-.01-.45-.02-.52-.02-.09,0-.33,.01-.63,.03-.55,.03-1.3,.06-1.8,.06-.86,0-.99-.46-.99-.73,0-.39,.33-.67,.79-.67,.21,0,.38,0,.77-.08,.49-.09,.59-.57,.73-1.74l.03-.23,2.08-18.8c.07-.75,.47-1.02,.82-1.02,.56,0,.79,.51,.89,.73l8.39,17.24,8.06-17.22c.11-.24,.33-.75,.89-.75,.71,0,.8,.83,.84,1.23l1.94,17.76c.13,1.13,.33,2.36,1.22,2.65,.76,.24,1.38,.24,1.64,.24,.65,0,.82,.42,.82,.67,0,.33-.16,.73-.93,.73Zm-25.55-1.09c.08,0,.28,0,.57,.02,.1,0,.21,0,.32,.01-.19-.26-.29-.59-.29-1.01,0-.45,.02-.82,.05-1.23v-.16l1.38-15.7,.78,1.92c.3,.75,3.62,7.88,3.89,8.41l.11,.21c2.15,4.31,2.97,5.91,3.27,6.49l.06,.11c.16,.3,.3,.56,.4,.75,.08-.16,.18-.38,.29-.61l.21-.43,7.96-16.87,1.56,16.93c.04,.35,.08,.76-.01,1.08h.05c.5,.04,1.48,.08,2.45,.12-.96-.77-1.12-2.25-1.22-3.12h0l-1.92-17.6-8.8,18.79-9.16-18.82-2.07,18.7c-.09,.73-.18,1.52-.59,2.05,.02,0,.03,0,.05,0,.32-.02,.58-.03,.68-.03Z"/></g><g><path class="c" d="M570.09,27.4c-2.81-2.52-3.5-5.82-3.5-8.56,0-1.94,.67-5.32,3.24-7.9,1.74-1.74,4.37-3.1,8.82-3.1,1.16,0,2.78,.09,4.19,.35,1.1,.2,2,.29,3.07,.43,.2,.03,.26,.14,.26,.32,0,.23-.09,.58-.14,1.62-.06,.95-.06,2.54-.09,2.98-.03,.43-.09,.61-.26,.61-.2,0-.23-.2-.23-.61,0-1.13-.46-2.31-1.22-2.95-1.01-.87-3.24-1.65-5.79-1.65-3.85,0-5.64,1.13-6.65,2.11-2.11,2.03-2.6,4.6-2.6,7.55,0,5.53,4.25,10.59,10.44,10.59,2.17,0,3.88-.26,5.03-1.45,.61-.64,.98-1.91,1.07-2.43,.06-.32,.12-.43,.29-.43,.14,0,.2,.2,.2,.43,0,.2-.35,2.72-.64,3.7-.17,.55-.23,.61-.75,.84-1.16,.46-3.36,.67-5.21,.67-4.34,0-7.26-1.07-9.55-3.12Z"/><path class="c" d="M579.64,31.02c-4.27,0-7.41-1.03-9.88-3.25h0c-2.43-2.18-3.67-5.19-3.67-8.94,0-2.35,.89-5.75,3.39-8.25,2.18-2.18,5.18-3.24,9.18-3.24,.7,0,2.53,.04,4.28,.36,.78,.14,1.45,.23,2.16,.32l.89,.11c.44,.06,.69,.37,.69,.81,0,.11-.01,.23-.04,.42-.03,.24-.08,.61-.11,1.23-.03,.55-.05,1.3-.06,1.93,0,.47-.02,.87-.03,1.06-.02,.32-.07,1.07-.76,1.07-.73,0-.73-.8-.73-1.11,0-1.01-.42-2.04-1.04-2.57-.86-.74-2.94-1.53-5.46-1.53-2.88,0-4.94,.64-6.31,1.97-2.16,2.07-2.45,4.8-2.45,7.19,0,4.96,3.72,10.09,9.94,10.09,2.42,0,3.78-.38,4.68-1.3,.49-.51,.85-1.66,.93-2.16,.04-.24,.15-.85,.78-.85,.32,0,.7,.24,.7,.93,0,.28-.36,2.84-.66,3.84-.22,.69-.37,.86-1.03,1.16-1.31,.52-3.65,.71-5.41,.71Zm-.98-22.68c-3.71,0-6.49,.96-8.47,2.95-2.28,2.28-3.09,5.39-3.09,7.54,0,3.45,1.12,6.21,3.33,8.19h0c2.31,2.07,5.15,3,9.21,3,2.09,0,4.06-.25,5.02-.63q.34-.15,.46-.53c.09-.3,.18-.75,.27-1.24-.11,.17-.23,.33-.36,.46-1.37,1.41-3.4,1.6-5.4,1.6-6.85,0-10.94-5.64-10.94-11.09,0-2.6,.33-5.58,2.76-7.91,1.56-1.51,3.85-2.25,7-2.25,2.8,0,5.08,.89,6.11,1.77,.38,.32,.7,.76,.93,1.26,0-.34,.02-.67,.04-.94,.04-.65,.08-1.04,.11-1.29,0-.05,.01-.1,.02-.14l-.69-.09c-.73-.09-1.42-.18-2.21-.33-1.16-.21-2.69-.34-4.1-.34Z"/></g><g><path class="c" d="M593.55,21.79c0,4.25,.12,6.1,.64,6.62,.46,.46,1.22,.67,3.47,.67,1.53,0,2.81-.03,3.5-.87,.38-.46,.67-1.19,.75-1.74,.03-.23,.09-.38,.26-.38,.14,0,.17,.12,.17,.43s-.2,2.05-.43,2.89c-.2,.67-.29,.78-1.82,.78-2.49,0-4.95-.17-7.75-.17-.9,0-1.76,.09-2.83,.09-.32,0-.46-.06-.46-.23,0-.09,.06-.17,.23-.17,.26,0,.61-.06,.87-.12,.58-.12,.72-.75,.84-1.59,.14-1.21,.14-3.5,.14-6.28v-5.09c0-4.51,0-5.32-.06-6.25-.06-.98-.29-1.45-1.24-1.65-.23-.06-.72-.09-.98-.09-.12,0-.23-.06-.23-.17,0-.17,.14-.23,.46-.23,1.3,0,3.12,.09,3.27,.09s2.26-.09,3.12-.09c.32,0,.46,.06,.46,.23,0,.12-.12,.17-.23,.17-.2,0-.61,.03-.96,.09-.84,.14-1.07,.64-1.13,1.65-.06,.93-.06,1.74-.06,6.25v5.15Z"/><path class="c" d="M600.09,30.71c-1.21,0-2.42-.04-3.66-.08-1.69-.06-3.45-.14-5.36-.05-.49,.02-1,.05-1.57,.05-.87,0-.96-.51-.96-.73,0-.33,.25-.67,.73-.67,.18,0,.47-.04,.76-.1,.22-.04,.34-.36,.45-1.17,.14-1.18,.14-3.51,.14-6.21v-5.09c0-4.5,0-5.31-.06-6.22-.05-.85-.19-1.05-.85-1.19-.18-.04-.62-.08-.88-.08-.42,0-.73-.29-.73-.67,0-.22,.09-.73,.96-.73,.98,0,2.26,.05,2.9,.07,.2,0,.33,.01,.37,.01,.04,0,.25,0,.53-.02,.73-.03,1.98-.07,2.6-.07,.87,0,.96,.51,.96,.73,0,.38-.31,.67-.73,.67-.16,0-.54,.02-.87,.08-.46,.08-.66,.21-.71,1.18-.06,.91-.06,1.72-.06,6.22v5.15c0,2.16,0,5.78,.49,6.27,.33,.33,.94,.52,3.12,.52,1.54,0,2.59-.05,3.12-.69,.29-.36,.56-.99,.64-1.5,.09-.69,.51-.8,.75-.8,.45,0,.67,.31,.67,.93,0,.39-.21,2.17-.45,3.03-.32,1.04-.75,1.15-2.3,1.15Zm-7.75-1.17c1.45,0,2.81,.05,4.13,.09,1.23,.04,2.42,.08,3.62,.08s1.21,0,1.34-.43c.06-.22,.12-.51,.17-.83-.02,.03-.04,.05-.06,.08-.87,1.05-2.4,1.05-3.89,1.05-2.28,0-3.21-.2-3.83-.81s-.78-2.06-.78-6.98v-5.15c0-4.52,0-5.34,.06-6.28,.03-.59,.13-1.16,.48-1.57-.25,0-.49,.02-.69,.02-.3,.01-.52,.02-.56,.02-.04,0-.19,0-.41-.01-.23,0-.55-.02-.91-.03,.38,.38,.5,.92,.54,1.57,.06,.94,.06,1.75,.06,6.28v5.09c0,2.85,0,5.09-.15,6.34-.06,.46-.15,1.07-.45,1.51,.45-.02,.88-.04,1.31-.04Z"/></g><g><path class="c" d="M606.76,20.69c0,4.17,.93,5.96,2.17,7.15,1.42,1.33,2.72,1.59,4.37,1.59,1.76,0,3.5-.84,4.54-2.08,1.33-1.65,1.68-4.11,1.68-7.09v-3.62c0-4.51,0-5.32-.06-6.25-.06-.98-.29-1.45-1.24-1.65-.23-.06-.72-.09-.98-.09-.12,0-.23-.06-.23-.17,0-.17,.14-.23,.46-.23,1.3,0,2.89,.09,3.07,.09,.2,0,1.56-.09,2.43-.09,.32,0,.46,.06,.46,.23,0,.12-.12,.17-.23,.17-.2,0-.38,.03-.72,.09-.78,.17-1.01,.64-1.07,1.65-.06,.93-.06,1.74-.06,6.25v3.1c0,3.12-.35,6.6-2.66,8.65-2.08,1.85-4.25,2.14-5.96,2.14-.98,0-3.91-.12-5.96-2.05-1.42-1.36-2.52-3.38-2.52-7.61v-4.22c0-4.51,0-5.32-.06-6.25-.06-.98-.29-1.45-1.24-1.65-.23-.06-.72-.09-.98-.09-.12,0-.23-.06-.23-.17,0-.17,.14-.23,.46-.23,1.3,0,3.07,.09,3.33,.09s2-.09,2.86-.09c.32,0,.46,.06,.46,.23,0,.12-.12,.17-.23,.17-.2,0-.38,.03-.72,.09-.78,.12-1.01,.64-1.07,1.65-.06,.93-.06,1.74-.06,6.25v4.05Z"/><path class="c" d="M612.72,31.02c-1.49,0-4.28-.28-6.3-2.19-1.85-1.77-2.67-4.23-2.67-7.97v-4.22c0-4.5,0-5.31-.06-6.22-.05-.85-.19-1.05-.85-1.19-.18-.04-.62-.08-.88-.08-.42,0-.73-.29-.73-.67,0-.22,.09-.73,.96-.73s2.03,.04,2.73,.07c.3,.01,.52,.02,.6,.02,.09,0,.36-.01,.71-.02,.66-.03,1.59-.06,2.16-.06,.87,0,.96,.51,.96,.73,0,.38-.31,.67-.73,.67-.18,0-.33,.03-.63,.08-.38,.06-.61,.16-.67,1.19-.06,.91-.06,1.72-.06,6.22v4.05c0,4.29,1.02,5.83,2.01,6.78,1.29,1.21,2.46,1.45,4.02,1.45s3.17-.73,4.16-1.9c1.09-1.35,1.56-3.38,1.56-6.77v-3.62c0-4.5,0-5.31-.06-6.22-.05-.85-.19-1.05-.85-1.19-.18-.04-.62-.08-.88-.08-.42,0-.73-.29-.73-.67,0-.22,.09-.73,.96-.73,.96,0,2.08,.05,2.68,.07,.21,0,.35,.01,.39,.01,.06,0,.24,0,.48-.02,.53-.03,1.35-.07,1.95-.07,.87,0,.96,.51,.96,.73,0,.38-.31,.67-.73,.67-.18,0-.33,.03-.63,.08-.42,.09-.61,.23-.67,1.19-.06,.91-.06,1.72-.06,6.22v3.1c0,3.03-.32,6.8-2.83,9.02-2.29,2.03-4.69,2.27-6.29,2.27Zm-8.57-22.24c.37,.38,.5,.92,.54,1.57,.06,.94,.06,1.75,.06,6.28v4.22c0,4.42,1.26,6.19,2.36,7.25,1.77,1.67,4.28,1.92,5.61,1.92,1.56,0,3.62-.23,5.63-2.02,2.21-1.96,2.49-5.45,2.49-8.28v-3.1c0-4.52,0-5.34,.06-6.28,.04-.64,.15-1.18,.47-1.56-.11,0-.21,.01-.31,.01-.27,.01-.46,.02-.53,.02-.05,0-.2,0-.43-.02-.18,0-.42-.02-.68-.03,.37,.38,.5,.92,.54,1.57,.06,.94,.06,1.75,.06,6.28v3.62c0,3.63-.54,5.85-1.79,7.4-1.17,1.4-3.06,2.27-4.93,2.27-1.77,0-3.18-.29-4.71-1.73-1.63-1.56-2.33-3.8-2.33-7.51v-4.05c0-4.52,0-5.34,.06-6.28,.03-.57,.12-1.15,.46-1.57-.18,0-.36,.01-.52,.02-.37,.01-.65,.03-.75,.03-.08,0-.31,0-.63-.02-.21,0-.46-.02-.74-.03Z"/></g><g><path class="c" d="M628.13,16.64c0-4.51,0-5.32-.06-6.25-.06-.98-.29-1.45-1.24-1.65-.23-.06-.72-.09-.84-.09-.26,0-.38-.06-.38-.17,0-.17,.14-.23,.46-.23,1.3,0,3.12,.09,3.27,.09,.7,0,1.82-.09,3.15-.09,4.74,0,5.79,2.89,5.79,4.34,0,2.37-1.36,3.79-2.72,5.21,2.14,.67,5,2.72,5,6.1,0,3.1-2.43,6.31-7.38,6.31-.32,0-1.24-.06-2.08-.09-.84-.06-1.65-.09-1.77-.09-.93,0-1.82,.09-2.83,.09-.32,0-.46-.06-.46-.2,0-.09,.06-.2,.43-.2,.23,0,.43-.03,.69-.09,.58-.12,.69-.78,.81-1.62,.14-1.21,.14-3.5,.14-6.28v-5.09Zm2.31,.64c0,.2,.06,.26,.2,.32,.17,.03,.69,.12,1.76,.12,1.62,0,2.02-.06,2.63-.75,.61-.69,1.04-1.74,1.04-2.92,0-2.4-1.07-4.98-3.91-4.98-.32,0-.93,.03-1.39,.14-.26,.06-.35,.14-.35,.32v7.75Zm0,3.07c0,2.23,0,5.82,.03,6.25,.09,1.42,.09,1.82,.98,2.26,.78,.38,2.03,.43,2.55,.43,1.56,0,4.08-.84,4.08-4.11,0-1.74-.58-4.25-2.81-5.79-.98-.67-1.71-.75-2.4-.84-.38-.06-1.82-.06-2.26-.06-.12,0-.17,.06-.17,.2v1.65Z"/><path class="c" d="M633.19,30.71c-.18,0-.54-.02-.96-.04-.35-.02-.75-.04-1.14-.05-.84-.06-1.63-.09-1.75-.09-.44,0-.88,.02-1.33,.04-.48,.02-.98,.05-1.5,.05-.87,0-.96-.49-.96-.7,0-.12,.04-.7,.93-.7,.18,0,.35-.02,.58-.08,.23-.04,.32-.46,.42-1.2,.14-1.18,.14-3.51,.14-6.21v-5.09c0-4.5,0-5.31-.06-6.22-.05-.85-.19-1.05-.85-1.19-.19-.05-.63-.08-.74-.08-.83,0-.88-.56-.88-.67,0-.22,.09-.73,.96-.73,.98,0,2.26,.05,2.9,.07,.2,0,.33,.01,.37,.01,.29,0,.65-.01,1.07-.03,.6-.02,1.31-.05,2.09-.05,4.96,0,6.29,3.04,6.29,4.84,0,2.25-1.12,3.7-2.34,5,1.99,.85,4.62,2.88,4.62,6.31s-2.71,6.81-7.88,6.81Zm-3.85-1.17c.12,0,.94,.03,1.8,.09,.37,.01,.78,.03,1.13,.05,.14,0,.28,.01,.4,.02-.49-.07-1.01-.19-1.44-.39-1.14-.55-1.18-1.22-1.26-2.56v-.12c-.04-.41-.04-3.33-.04-6.28v-1.65c0-.33,.17-.58,.44-.67-.3-.14-.44-.39-.44-.75v-7.75c0-.24,.09-.54,.47-.72-.42,.02-.78,.03-1.07,.03-.04,0-.19,0-.41-.01-.23,0-.55-.02-.91-.03,.38,.38,.5,.92,.54,1.57,.06,.94,.06,1.75,.06,6.28v5.09c0,2.85,0,5.09-.15,6.34-.07,.51-.15,1.09-.41,1.5,.43-.02,.85-.04,1.28-.04Zm4.36-11.36c.53,.11,1.13,.32,1.85,.8,2.73,1.88,3.03,4.96,3.03,6.2,0,2-.87,3.19-1.93,3.86,2.33-1.05,3.42-3.14,3.42-5.13,0-3.3-2.92-5.09-4.65-5.63l-.77-.24,.25-.26c-.34,.24-.7,.34-1.19,.39Zm-2.76,.82v1.35c0,2.03,0,5.8,.03,6.22v.12c.09,1.33,.11,1.43,.7,1.72,.59,.28,1.59,.38,2.33,.38,.6,0,3.58-.17,3.58-3.61,0-1.08-.25-3.77-2.59-5.37-.88-.59-1.5-.67-2.17-.75-.14-.02-.54-.05-1.88-.06Zm-.5-1.72l.5,.03s0-.02,0-.03h-.5Zm.5-.14c.21,.03,.68,.07,1.47,.07,1.64,0,1.81-.07,2.26-.58,.58-.67,.92-1.61,.92-2.59,0-2.16-.89-4.48-3.41-4.48-.34,0-.86,.03-1.24,.12v7.46Zm2.79-8.31c2.08,.78,2.85,3.14,2.85,5.21,0,1.06-.32,2.08-.88,2.89,1.13-1.21,2.08-2.44,2.08-4.34,0-.36-.12-3.26-4.05-3.76Zm-7.84-.68h0Z"/></g><g><path class="c" d="M210.57,91.63c0,7.14,1.59,10.22,3.72,12.25,2.43,2.28,4.66,2.73,7.49,2.73,3.02,0,6-1.44,7.79-3.57,2.28-2.83,2.88-7.04,2.88-12.15v-6.2c0-7.74,0-9.12-.1-10.71-.1-1.69-.5-2.48-2.13-2.83-.4-.1-1.24-.15-1.69-.15-.2,0-.4-.1-.4-.3,0-.3,.25-.4,.79-.4,2.23,0,4.96,.15,5.26,.15,.35,0,2.68-.15,4.17-.15,.55,0,.79,.1,.79,.4,0,.2-.2,.3-.4,.3-.35,0-.64,.05-1.24,.15-1.34,.3-1.74,1.09-1.83,2.83-.1,1.59-.1,2.97-.1,10.71v5.31c0,5.36-.6,11.31-4.56,14.83-3.57,3.17-7.29,3.67-10.22,3.67-1.69,0-6.69-.2-10.22-3.52-2.43-2.33-4.31-5.8-4.31-13.04v-7.24c0-7.74,0-9.12-.1-10.71-.1-1.69-.5-2.48-2.13-2.83-.4-.1-1.24-.15-1.69-.15-.2,0-.4-.1-.4-.3,0-.3,.25-.4,.79-.4,2.23,0,5.26,.15,5.7,.15s3.42-.15,4.91-.15c.55,0,.79,.1,.79,.4,0,.2-.2,.3-.4,.3-.35,0-.64,.05-1.24,.15-1.34,.2-1.74,1.09-1.83,2.83-.1,1.59-.1,2.97-.1,10.71v6.94Z"/><path class="c" d="M220.78,108.99c-2.5,0-7.19-.47-10.56-3.66-2.08-2-4.47-5.33-4.47-13.41v-7.24c0-7.72,0-9.11-.1-10.68-.09-1.61-.45-2.1-1.74-2.37-.33-.08-1.09-.14-1.58-.14s-.9-.34-.9-.8c0-.59,.44-.9,1.29-.9,1.55,0,3.5,.07,4.67,.12,.52,.02,.9,.03,1.03,.03,.16,0,.62-.02,1.23-.04,1.14-.04,2.71-.11,3.68-.11,.86,0,1.29,.3,1.29,.9,0,.46-.39,.8-.9,.8-.3,0-.56,.04-1.16,.14-.88,.13-1.31,.52-1.42,2.36-.1,1.57-.1,2.96-.1,10.68v6.94c0,7.48,1.8,10.21,3.56,11.89,2.31,2.17,4.37,2.59,7.14,2.59s5.65-1.3,7.4-3.39c1.93-2.39,2.76-5.93,2.76-11.83v-6.2c0-7.72,0-9.11-.1-10.68-.09-1.61-.45-2.1-1.74-2.37-.33-.08-1.09-.14-1.58-.14s-.9-.34-.9-.8c0-.59,.44-.9,1.29-.9,1.65,0,3.55,.08,4.57,.12,.36,.01,.61,.03,.68,.03,.11,0,.42-.02,.85-.04,.92-.04,2.3-.11,3.32-.11,.86,0,1.29,.3,1.29,.9,0,.46-.39,.8-.9,.8-.3,0-.56,.04-1.16,.14-.89,.2-1.32,.59-1.42,2.36-.1,1.57-.1,2.96-.1,10.68v5.31c0,5.12-.54,11.48-4.73,15.2-3.83,3.4-7.85,3.8-10.55,3.8Zm-16.02-38.15c1.44,.51,1.8,1.55,1.89,3.11,.1,1.6,.1,3,.1,10.74v7.24c0,7.7,2.22,10.82,4.16,12.68,3.12,2.94,7.52,3.38,9.87,3.38,2.75,0,6.35-.4,9.88-3.54,3.9-3.46,4.39-9.54,4.39-14.45v-5.31c0-7.74,0-9.14,.1-10.74,.09-1.53,.41-2.6,1.64-3.1-.62,.02-1.25,.05-1.73,.08-.45,.02-.78,.04-.9,.04-.08,0-.34-.01-.73-.03-.6-.03-1.51-.06-2.49-.09,1.43,.51,1.79,1.55,1.88,3.11,.1,1.6,.1,3,.1,10.74v6.2c0,6.14-.89,9.87-2.99,12.46-1.94,2.32-5.07,3.76-8.17,3.76s-5.29-.48-7.83-2.86c-1.92-1.83-3.88-4.76-3.88-12.61v-6.94c0-7.74,0-9.14,.1-10.74,.08-1.33,.33-2.6,1.57-3.11-.69,.02-1.43,.05-2.04,.07-.62,.02-1.1,.04-1.27,.04-.14,0-.53-.01-1.07-.03-.68-.03-1.62-.06-2.6-.08Z"/></g><g><path class="c" d="M244.44,93.16c0-17.9,.1-11.46,.05-21.08,0-1.93,.15-2.48,.55-2.48s1.24,1.09,1.74,1.59c.74,.84,8.13,8.83,15.77,17.01,4.91,5.26,10.31,11.31,11.9,12.94l-.55-25.19c-.05-3.22-.4-4.31-1.93-4.71-.89-.2-1.69-.25-2.13-.25-.55,0-.69-.15-.69-.35,0-.3,.4-.35,.99-.35,2.23,0,4.61,.15,5.16,.15s2.18-.15,4.22-.15c.55,0,.89,.05,.89,.35,0,.2-.2,.3-.55,.35-.4,.05-.69,.1-1.29,.2-1.39,.3-1.74,1.04-1.74,4.46l-.1,28.96c0,3.27-.1,3.52-.45,3.52-.4,0-.99-.55-3.62-3.17-.55-.5-7.69-7.79-12.94-13.44-5.75-6.2-11.36-12.45-12.94-14.23l.64,23.75c.1,4.07,.6,5.36,1.93,5.75,.94,.25,2.03,.3,2.48,.3,.25,0,.4,.1,.4,.3,0,.3-.3,.4-.89,.4-2.83,0-4.81-.15-5.26-.15s-2.53,.15-4.76,.15c-.5,0-.79-.05-.79-.4,0-.2,.15-.3,.4-.3,.4,0,1.29-.05,2.03-.3,1.24-.35,1.49-1.79,1.49-6.3v-7.34Z"/><path class="c" d="M276.28,108.64c-.61,0-1.11-.46-3.97-3.32-.52-.47-7.66-7.75-12.96-13.45-4.91-5.29-9.73-10.64-12.04-13.22l.61,22.39c.1,4.1,.61,5,1.58,5.29,1.02,.27,2.21,.28,2.34,.28,.62,0,.9,.4,.9,.8,0,.59-.47,.9-1.39,.9-2.03,0-3.6-.08-4.54-.12-.35-.02-.59-.03-.71-.03-.13,0-.42,.01-.81,.03-.9,.04-2.39,.12-3.95,.12-.35,0-1.29,0-1.29-.9,0-.4,.28-.8,.9-.8,.49,0,1.27-.07,1.88-.27,.9-.25,1.15-1.5,1.15-5.82v-7.34c0-9.43,.03-12.14,.05-13.93,.02-1.64,.03-2.59,0-7.14,0-1.54,0-2.98,1.05-2.98,.48,0,.95,.48,1.66,1.27,.16,.17,.3,.34,.43,.46,.74,.84,8.09,8.78,15.78,17.02,2.6,2.78,5.35,5.8,7.56,8.23,1.4,1.54,2.6,2.85,3.44,3.76l-.52-23.89c-.05-3.29-.43-3.95-1.56-4.24-.94-.21-1.72-.23-2.01-.23-1.08,0-1.19-.59-1.19-.85,0-.85,1.01-.85,1.49-.85,1.5,0,3.07,.07,4.11,.11,.5,.02,.87,.04,1.05,.04s.48-.02,.88-.04c.79-.04,1.98-.11,3.33-.11,.42,0,1.39,0,1.39,.85,0,.32-.17,.73-.97,.84-.4,.05-.69,.1-1.28,.2-.91,.19-1.32,.43-1.32,3.97l-.1,28.96c0,3.17,0,4.02-.95,4.02Zm-30.04-32.7l.91,1.02c1.67,1.88,7.25,8.09,12.94,14.22,5.28,5.68,12.38,12.93,12.91,13.41,1.36,1.36,2.65,2.65,3.14,2.97,.09-.59,.09-2.14,.09-2.95l.1-28.96c0-3.08,.26-4.34,1.69-4.83-.7,.02-1.32,.06-1.78,.08-.43,.02-.75,.04-.94,.04s-.57-.02-1.09-.04c-.51-.02-1.14-.05-1.83-.07,1.68,.57,1.99,2.08,2.04,5.11l.57,26.46-.89-.92c-.75-.78-2.34-2.52-4.35-4.73-2.21-2.43-4.96-5.45-7.56-8.22-7.7-8.24-15.05-16.2-15.78-17.02-.11-.11-.27-.29-.44-.48-.23-.25-.61-.67-.85-.86-.06,.22-.12,.73-.12,1.9,.02,4.56,.01,5.51,0,7.15-.02,1.79-.05,4.5-.05,13.92v7.34c0,4.29-.17,6.26-1.79,6.76,.82-.03,1.54-.06,2.06-.08,.42-.02,.72-.03,.86-.03,.13,0,.39,.01,.76,.03,.56,.03,1.34,.06,2.32,.09-1.78-.57-2.15-2.55-2.24-6.2l-.68-25.12Z"/></g><g><path class="c" d="M289.22,84.68c0-7.74,0-9.12-.1-10.71-.1-1.69-.6-2.53-1.69-2.78-.55-.15-1.19-.2-1.54-.2-.2,0-.4-.1-.4-.3,0-.3,.25-.4,.79-.4,1.64,0,4.76,.15,5.01,.15s3.37-.15,4.86-.15c.55,0,.79,.1,.79,.4,0,.2-.2,.3-.4,.3-.35,0-.64,.05-1.24,.15-1.34,.25-1.74,1.09-1.83,2.83-.1,1.59-.1,2.97-.1,10.71v8.73c0,4.76,0,8.68,.25,10.76,.15,1.44,.45,2.53,1.93,2.73,.69,.1,1.74,.2,2.03,.2,.45,0,.6,.15,.6,.3,0,.25-.2,.4-.74,.4-2.73,0-5.9-.15-6.15-.15s-3.37,.15-4.86,.15c-.55,0-.79-.1-.79-.4,0-.15,.1-.3,.55-.3,.3,0,.84-.05,1.29-.15,.99-.2,1.29-1.34,1.49-2.78,.25-2.08,.25-6,.25-10.76v-8.73Z"/><path class="c" d="M297.45,108.29c-2.1,0-4.44-.09-5.57-.13-.32-.01-.53-.02-.58-.02-.07,0-.38,.01-.81,.03-1.12,.04-2.98,.12-4.05,.12-.86,0-1.29-.3-1.29-.9,0-.19,.08-.8,1.05-.8,.28,0,.78-.05,1.18-.14,.58-.12,.88-.78,1.1-2.36,.24-2.04,.24-6.05,.24-10.69v-8.73c0-7.72,0-9.11-.1-10.68-.1-1.7-.59-2.16-1.3-2.32-.54-.15-1.15-.19-1.43-.19-.51,0-.9-.34-.9-.8,0-.59,.44-.9,1.29-.9,1.19,0,3.17,.08,4.24,.12,.41,.02,.7,.03,.77,.03s.38-.01,.81-.03c1.12-.04,2.98-.12,4.05-.12,.86,0,1.29,.3,1.29,.9,0,.46-.39,.8-.9,.8-.3,0-.56,.04-1.16,.14-.88,.16-1.31,.56-1.42,2.36-.1,1.57-.1,2.96-.1,10.68v8.73c0,4.64,0,8.65,.24,10.7,.17,1.63,.52,2.16,1.5,2.29,.69,.1,1.7,.19,1.97,.19,1.06,0,1.1,.72,1.1,.8,0,.27-.12,.9-1.24,.9Zm-11.44-.68h0Zm1.94-36.78c1.33,.52,1.59,1.92,1.66,3.11,.1,1.6,.1,3,.1,10.74v8.73c0,4.87,0,8.71-.25,10.82-.17,1.22-.43,2.52-1.38,3.03,.84-.03,1.72-.06,2.36-.09,.46-.02,.78-.03,.85-.03,.06,0,.28,0,.62,.02,.67,.02,1.76,.07,2.98,.09-1.37-.47-1.64-1.8-1.76-3.04-.25-2.11-.25-5.95-.25-10.81v-8.73c0-7.74,0-9.14,.1-10.74,.09-1.51,.41-2.63,1.61-3.11-.86,.03-1.79,.06-2.44,.09-.46,.02-.78,.03-.85,.03s-.37-.01-.81-.03c-.64-.02-1.61-.06-2.53-.09Z"/></g><g><path class="c" d="M310.91,87.86c1.54-1.49,8.28-8.58,11.31-11.7,2.98-3.08,3.17-3.57,3.17-4.17,0-.4-.25-.79-.64-.94-.35-.15-.45-.25-.45-.45s.3-.3,.74-.3c1.44,0,1.29,.15,2.98,.15,1.54,0,4.46-.15,5.26-.15,.69,0,.84,.15,.84,.35s-.1,.3-.55,.35c-.94,.1-1.83,.3-2.53,.59-1.24,.5-2.18,1.09-5.16,3.97-4.36,4.21-10.02,9.82-11.31,11.26,3.12,3.42,12.15,12.6,14.48,14.78,4.07,3.82,5.8,4.91,8.18,5.36,.45,.1,.94,.15,1.44,.15,.4,0,.69,.1,.69,.35s-.2,.35-.74,.35h-3.67c-4.31,0-5.46-.54-7.79-2.38-2.98-2.33-11.9-11.9-16.27-17.11v5.11c0,4.76,0,8.68,.25,10.76,.15,1.44,.45,2.53,1.93,2.73,.69,.1,1.69,.2,1.98,.2,.45,0,.6,.2,.6,.35,0,.25-.2,.35-.74,.35-2.73,0-5.85-.15-6.1-.15s-3.17,.15-4.66,.15c-.55,0-.79-.05-.79-.35,0-.15,.1-.35,.55-.35,.3,0,.84-.05,1.29-.15,.99-.2,1.29-1.34,1.49-2.78,.25-2.08,.25-6,.25-10.76v-8.73c0-7.74,0-9.12-.1-10.71-.1-1.69-.6-2.53-1.69-2.78-.55-.15-1.44-.2-1.79-.2-.4,0-.55-.1-.55-.3,0-.3,.25-.4,.79-.4,1.64,0,4.96,.15,5.21,.15s3.37-.15,4.86-.15c.55,0,.79,.1,.79,.35,0,.2-.1,.3-.55,.35-.55,.05-.59,.05-1.09,.1-1.34,.15-1.74,1.14-1.83,2.88-.1,1.59-.1,2.97-.1,10.71v3.17Z"/><path class="c" d="M338.63,108.29h-3.67c-4.32,0-5.61-.53-8.09-2.49-2.91-2.28-10.97-10.91-15.46-16.14v3.75c0,4.64,0,8.65,.24,10.7,.17,1.63,.52,2.16,1.5,2.29,.72,.1,1.67,.19,1.92,.19,.75,0,1.1,.44,1.1,.85,0,.56-.42,.85-1.24,.85-2.11,0-4.41-.09-5.52-.13-.31-.01-.52-.02-.58-.02-.07,0-.36,.01-.77,.03-1.06,.04-2.83,.12-3.89,.12-.39,0-1.29,0-1.29-.85,0-.42,.32-.85,1.05-.85,.28,0,.78-.05,1.18-.14,.58-.12,.88-.78,1.1-2.36,.24-2.04,.24-6.05,.24-10.69v-8.73c0-7.72,0-9.11-.1-10.68-.1-1.7-.59-2.16-1.3-2.32-.51-.14-1.36-.19-1.67-.19-.94,0-1.05-.56-1.05-.8,0-.59,.44-.9,1.29-.9,1.19,0,3.28,.08,4.4,.12,.44,.02,.74,.03,.81,.03s.38-.01,.81-.03c1.12-.04,2.98-.12,4.05-.12,.86,0,1.29,.29,1.29,.85,0,.73-.75,.82-.99,.84l-1.1,.1c-.81,.09-1.28,.5-1.39,2.41-.1,1.57-.1,2.96-.1,10.68v1.97c1.46-1.49,4.08-4.22,6.45-6.69,1.53-1.59,2.98-3.1,4-4.16,2.82-2.92,3.03-3.41,3.03-3.82,0-.21-.13-.4-.32-.47-.28-.12-.77-.33-.77-.91,0-.24,.12-.8,1.24-.8,.72,0,1.07,.04,1.41,.07,.35,.04,.72,.08,1.57,.08s2.25-.05,3.38-.09c.83-.03,1.54-.06,1.87-.06s1.34,0,1.34,.85c0,.73-.75,.82-.99,.84-.94,.1-1.77,.29-2.39,.56-1.17,.47-2.04,1-5.01,3.87-4.01,3.87-9.24,9.05-10.98,10.9,3.33,3.61,11.87,12.29,14.14,14.41,3.91,3.67,5.61,4.79,7.93,5.23,.42,.09,.88,.14,1.35,.14,1.11,0,1.19,.65,1.19,.85,0,.56-.42,.85-1.24,.85Zm.34-.66h0Zm-23.72-.01h0Zm-11.47,0h0Zm7.61-19.52c4.57,5.43,13.3,14.74,16.1,16.93,2.3,1.81,3.34,2.27,7.48,2.27h1.51c-2.21-.56-4.04-1.85-7.75-5.33-2.35-2.2-11.42-11.42-14.51-14.81l-.31-.33,.3-.34c1.33-1.48,7.04-7.13,11.33-11.28,2.91-2.82,3.93-3.51,5.32-4.07,.24-.1,.5-.2,.79-.28-.07,0-.14,0-.21,0-1.15,.04-2.52,.09-3.42,.09s-1.3-.04-1.67-.08c-.28-.03-.54-.06-1.02-.07,.35,.28,.56,.71,.56,1.18,0,.81-.27,1.37-3.31,4.51-1.02,1.06-2.47,2.56-4,4.16-2.84,2.96-6.04,6.3-7.2,7.43Zm-2.56,19.05c.06,0,.28,0,.61,.02,.67,.03,1.76,.07,2.99,.1-1.38-.46-1.64-1.8-1.77-3.04-.25-2.11-.25-5.95-.25-10.81v-8.73c0-7.74,0-9.14,.1-10.74,.07-1.26,.31-2.56,1.42-3.1-.8,.03-1.64,.06-2.25,.08-.46,.02-.78,.03-.85,.03s-.39-.01-.85-.03c-.58-.02-1.43-.05-2.27-.08,1.3,.53,1.56,1.91,1.63,3.1,.1,1.6,.1,3,.1,10.74v8.73c0,4.87,0,8.71-.25,10.82-.17,1.22-.43,2.52-1.38,3.03,.79-.03,1.61-.06,2.2-.08,.43-.02,.74-.03,.81-.03Z"/></g><g><path class="c" d="M344.93,84.68c0-7.74,0-9.12-.1-10.71-.1-1.69-.6-2.53-1.69-2.78-.54-.15-1.19-.2-1.54-.2-.2,0-.4-.1-.4-.3,0-.3,.25-.4,.79-.4,1.64,0,4.76,.15,5.01,.15s3.37-.15,4.86-.15c.55,0,.79,.1,.79,.4,0,.2-.2,.3-.4,.3-.35,0-.64,.05-1.24,.15-1.34,.25-1.74,1.09-1.83,2.83-.1,1.59-.1,2.97-.1,10.71v8.73c0,4.76,0,8.68,.25,10.76,.15,1.44,.45,2.53,1.93,2.73,.69,.1,1.74,.2,2.03,.2,.45,0,.59,.15,.59,.3,0,.25-.2,.4-.74,.4-2.73,0-5.9-.15-6.15-.15s-3.37,.15-4.86,.15c-.55,0-.79-.1-.79-.4,0-.15,.1-.3,.55-.3,.3,0,.84-.05,1.29-.15,.99-.2,1.29-1.34,1.49-2.78,.25-2.08,.25-6,.25-10.76v-8.73Z"/><path class="c" d="M353.16,108.29c-2.1,0-4.44-.09-5.57-.13-.32-.01-.53-.02-.58-.02-.07,0-.38,.01-.81,.03-1.12,.04-2.98,.12-4.05,.12-.86,0-1.29-.3-1.29-.9,0-.13,.05-.8,1.05-.8,.28,0,.78-.05,1.18-.14,.58-.12,.88-.78,1.1-2.36,.24-2.04,.24-6.05,.24-10.69v-8.73c0-7.72,0-9.11-.1-10.68-.1-1.7-.59-2.16-1.3-2.32-.54-.15-1.15-.19-1.43-.19-.51,0-.9-.34-.9-.8,0-.59,.43-.9,1.29-.9,1.19,0,3.17,.08,4.24,.12,.42,.02,.7,.03,.77,.03s.38-.01,.81-.03c1.12-.04,2.98-.12,4.05-.12,.86,0,1.29,.3,1.29,.9,0,.46-.39,.8-.9,.8-.3,0-.56,.04-1.16,.14-.88,.16-1.32,.56-1.42,2.36-.1,1.57-.1,2.96-.1,10.68v8.73c0,4.64,0,8.65,.24,10.7,.17,1.63,.52,2.16,1.5,2.29,.68,.1,1.7,.19,1.97,.19,1.06,0,1.09,.72,1.09,.8,0,.27-.12,.9-1.24,.9Zm-9.49-37.46c1.33,.52,1.59,1.92,1.66,3.11,.1,1.6,.1,3,.1,10.74v8.73c0,4.87,0,8.71-.25,10.82-.17,1.22-.43,2.52-1.38,3.03,.84-.03,1.72-.06,2.36-.09,.46-.02,.78-.03,.85-.03,.06,0,.28,0,.62,.02,.67,.02,1.76,.07,2.98,.09-1.38-.47-1.64-1.8-1.76-3.04-.25-2.11-.25-5.95-.25-10.81v-8.73c0-7.74,0-9.14,.1-10.74,.09-1.51,.41-2.63,1.61-3.11-.86,.03-1.79,.06-2.45,.09-.46,.02-.78,.03-.85,.03s-.37-.01-.81-.03c-.64-.02-1.61-.06-2.53-.09Z"/></g><g><path class="c" d="M362.07,93.16c0-17.9,.1-11.46,.05-21.08,0-1.93,.15-2.48,.55-2.48s1.24,1.09,1.74,1.59c.74,.84,8.13,8.83,15.77,17.01,4.91,5.26,10.32,11.31,11.9,12.94l-.55-25.19c-.05-3.22-.4-4.31-1.93-4.71-.89-.2-1.69-.25-2.13-.25-.54,0-.69-.15-.69-.35,0-.3,.4-.35,.99-.35,2.23,0,4.61,.15,5.16,.15s2.18-.15,4.22-.15c.54,0,.89,.05,.89,.35,0,.2-.2,.3-.55,.35-.4,.05-.69,.1-1.29,.2-1.39,.3-1.74,1.04-1.74,4.46l-.1,28.96c0,3.27-.1,3.52-.45,3.52-.4,0-.99-.55-3.62-3.17-.55-.5-7.69-7.79-12.94-13.44-5.75-6.2-11.36-12.45-12.94-14.23l.64,23.75c.1,4.07,.6,5.36,1.93,5.75,.94,.25,2.03,.3,2.48,.3,.25,0,.4,.1,.4,.3,0,.3-.3,.4-.89,.4-2.83,0-4.81-.15-5.26-.15s-2.53,.15-4.76,.15c-.5,0-.79-.05-.79-.4,0-.2,.15-.3,.4-.3,.4,0,1.29-.05,2.03-.3,1.24-.35,1.49-1.79,1.49-6.3v-7.34Z"/><path class="c" d="M393.9,108.64c-.61,0-1.11-.46-3.97-3.32-.52-.47-7.65-7.75-12.96-13.45-4.9-5.28-9.73-10.63-12.04-13.22l.61,22.39c.1,4.1,.61,5,1.58,5.29,1.02,.27,2.21,.28,2.34,.28,.62,0,.9,.4,.9,.8,0,.59-.47,.9-1.39,.9-2.04,0-3.61-.08-4.54-.12-.35-.02-.59-.03-.71-.03-.13,0-.42,.01-.81,.03-.89,.04-2.39,.12-3.95,.12-.35,0-1.29,0-1.29-.9,0-.4,.28-.8,.9-.8,.49,0,1.27-.07,1.88-.27,.9-.25,1.15-1.5,1.15-5.82v-7.34c0-9.44,.03-12.14,.05-13.94,.02-1.64,.03-2.59,0-7.14,0-1.54,0-2.98,1.05-2.98,.48,0,.95,.48,1.66,1.27,.16,.17,.3,.34,.43,.46,.75,.85,8.1,8.79,15.78,17.02,2.6,2.78,5.35,5.81,7.57,8.24,1.4,1.54,2.59,2.85,3.44,3.76l-.52-23.89c-.05-3.29-.43-3.95-1.56-4.24-.94-.21-1.72-.23-2.01-.23-1.08,0-1.19-.59-1.19-.85,0-.85,1.01-.85,1.49-.85,1.5,0,3.07,.07,4.11,.11,.5,.02,.87,.04,1.05,.04s.48-.02,.88-.04c.79-.04,1.98-.11,3.33-.11,.42,0,1.39,0,1.39,.85,0,.32-.17,.73-.97,.84-.4,.05-.69,.1-1.28,.2-.91,.19-1.32,.43-1.32,3.97l-.1,28.96c0,3.17,0,4.02-.95,4.02Zm-30.04-32.7l.91,1.02c1.67,1.88,7.26,8.11,12.94,14.22,5.29,5.69,12.39,12.93,12.91,13.41,1.36,1.36,2.65,2.65,3.14,2.97,.09-.59,.09-2.14,.09-2.95l.1-28.96c0-3.08,.26-4.33,1.69-4.83-.7,.02-1.32,.06-1.78,.08-.43,.02-.75,.04-.94,.04s-.57-.02-1.09-.04c-.51-.02-1.14-.05-1.83-.07,1.68,.57,1.99,2.08,2.04,5.11l.57,26.46-.89-.92c-.75-.78-2.34-2.52-4.35-4.72-2.21-2.43-4.97-5.45-7.56-8.23-7.69-8.24-15.05-16.19-15.78-17.02-.11-.11-.27-.29-.44-.48-.22-.25-.61-.67-.85-.86-.06,.22-.12,.73-.12,1.9,.02,4.55,.01,5.51,0,7.15-.02,1.79-.05,4.5-.05,13.93v7.34c0,4.29-.17,6.26-1.79,6.76,.82-.03,1.54-.06,2.06-.08,.42-.02,.72-.03,.86-.03,.13,0,.39,.01,.76,.03,.56,.03,1.34,.06,2.32,.09-1.78-.57-2.15-2.55-2.24-6.2l-.68-25.12Z"/></g><g><path class="c" d="M401.06,89c0-8.03,5.85-19.39,19.54-19.39,11.16,0,19.49,7.04,19.49,18.6s-7.84,20.28-19.79,20.28c-13.59,0-19.24-10.56-19.24-19.49Zm34.27,.6c0-11.9-7.24-18.3-15.08-18.3-8.28,0-14.48,5.46-14.48,16.32,0,11.55,6.94,18.99,15.87,18.99,4.46,0,13.69-2.58,13.69-17.01Z"/><path class="c" d="M420.3,108.99c-13.56,0-19.74-10.36-19.74-19.99,0-7.69,5.44-19.89,20.04-19.89,11.96,0,19.99,7.67,19.99,19.1,0,12.04-8.53,20.78-20.29,20.78Zm.3-38.88c-13.87,0-19.04,11.59-19.04,18.89,0,9.15,5.86,18.99,18.74,18.99,11.18,0,19.29-8.32,19.29-19.78,0-10.82-7.63-18.1-18.99-18.1Zm1.04,37c-9.64,0-16.37-8.02-16.37-19.49,0-10.37,5.74-16.82,14.98-16.82,7.5,0,15.58,5.88,15.58,18.8,0,16.67-11.82,17.51-14.19,17.51Zm-1.39-35.31c-8.75,0-13.98,5.91-13.98,15.82,0,10.89,6.32,18.49,15.37,18.49,2.2,0,13.19-.8,13.19-16.51,0-12.23-7.56-17.8-14.58-17.8Z"/></g><g><path class="c" d="M469.88,84.68c0-7.74,0-9.12-.1-10.71-.1-1.69-.5-2.48-2.13-2.83-.4-.1-1.24-.15-1.44-.15-.45,0-.64-.1-.64-.3,0-.3,.25-.4,.79-.4,2.23,0,5.36,.15,5.6,.15,1.19,0,3.12-.15,5.41-.15,8.13,0,9.92,4.96,9.92,7.44,0,4.07-2.33,6.5-4.66,8.93,3.67,1.14,8.58,4.66,8.58,10.46,0,5.31-4.17,10.81-12.65,10.81-.55,0-2.13-.1-3.57-.15-1.44-.1-2.83-.15-3.03-.15-1.59,0-3.12,.15-4.86,.15-.54,0-.79-.1-.79-.35,0-.15,.1-.35,.74-.35,.4,0,.74-.05,1.19-.15,.99-.2,1.19-1.34,1.39-2.78,.25-2.08,.25-6,.25-10.76v-8.73Zm3.97,1.09c0,.35,.1,.45,.35,.55,.3,.05,1.19,.2,3.03,.2,2.78,0,3.47-.1,4.51-1.29,1.04-1.19,1.79-2.98,1.79-5.01,0-4.12-1.83-8.53-6.7-8.53-.54,0-1.59,.05-2.38,.25-.45,.1-.59,.25-.59,.54v13.29Zm0,5.26c0,3.82,0,9.97,.05,10.71,.15,2.43,.15,3.12,1.69,3.87,1.34,.64,3.47,.74,4.36,.74,2.68,0,6.99-1.44,6.99-7.04,0-2.98-.99-7.29-4.81-9.92-1.69-1.14-2.93-1.29-4.12-1.44-.64-.1-3.12-.1-3.87-.1-.2,0-.3,.1-.3,.35v2.83Z"/><path class="c" d="M478.56,108.44c-.3,0-.9-.03-1.62-.06-.61-.03-1.31-.06-1.97-.09-1.47-.1-2.84-.15-3.01-.15-.77,0-1.52,.04-2.3,.07-.82,.04-1.67,.08-2.56,.08s-1.29-.29-1.29-.85c0-.25,.12-.85,1.24-.85,.34,0,.64-.04,1.08-.14,.6-.12,.79-.82,1-2.36,.24-2.04,.24-6.05,.24-10.69v-8.73c0-7.72,0-9.11-.1-10.68-.09-1.61-.45-2.1-1.74-2.37-.36-.09-1.15-.14-1.33-.14-1.03,0-1.14-.56-1.14-.8,0-.59,.44-.9,1.29-.9,1.68,0,3.89,.08,4.96,.13,.35,.01,.59,.02,.65,.02,.49,0,1.12-.03,1.84-.06,.99-.04,2.23-.09,3.57-.09,8.22,0,10.42,4.99,10.42,7.94,0,3.94-2.08,6.42-4.26,8.71,3.35,1.29,8.18,4.7,8.18,10.68,0,5.62-4.52,11.31-13.15,11.31Zm-6.6-1.3c.23,0,1.63,.05,3.06,.15,.65,.02,1.35,.06,1.97,.09,.7,.03,1.28,.06,1.57,.06,8.34,0,12.15-5.34,12.15-10.31,0-5.86-5.17-9.04-8.23-9.99l-.77-.24,.56-.58c2.33-2.42,4.52-4.72,4.52-8.58,0-2.58-1.98-6.94-9.42-6.94-1.31,0-2.54,.05-3.52,.09-.74,.03-1.38,.06-1.88,.06-.06,0-.31,0-.69-.02-.66-.03-1.75-.07-2.89-.1,1.44,.51,1.8,1.55,1.89,3.11,.1,1.6,.1,3,.1,10.74v8.73c0,4.87,0,8.71-.25,10.82-.16,1.18-.34,2.5-1.27,3.02,.25-.01,.51-.02,.76-.03,.79-.04,1.56-.07,2.34-.07Zm7.98-.29c-.69,0-3.05-.06-4.58-.79-1.76-.85-1.82-1.8-1.96-4.09v-.2c-.06-.76-.06-6.77-.06-10.74v-2.83c0-.51,.31-.85,.8-.85,2.2,0,3.49,.03,3.94,.11,1.2,.15,2.54,.32,4.32,1.52,4.54,3.13,5.03,8.27,5.03,10.33,0,5.57-4.04,7.54-7.49,7.54Zm-5.6-18.5v2.67c0,3.72,0,9.95,.05,10.68v.2c.15,2.25,.17,2.66,1.41,3.25,1.37,.66,3.7,.69,4.15,.69,.66,0,6.49-.18,6.49-6.54,0-1.91-.45-6.65-4.59-9.51-1.58-1.06-2.69-1.2-3.88-1.35-.3-.05-1.15-.1-3.62-.1Zm2.87-1.34c-1.88,0-2.8-.15-3.11-.21l-.1-.03c-.46-.19-.66-.49-.66-1.01v-13.29c0-.82,.74-.98,.99-1.03,.98-.25,2.24-.26,2.49-.26,5.31,0,7.2,4.86,7.2,9.03,0,2-.7,3.95-1.91,5.34-1.22,1.39-2.15,1.46-4.89,1.46Zm-2.83-1.13c.25,0,1.11,.13,2.83,.13,2.8,0,3.27-.12,4.14-1.12,1.06-1.21,1.66-2.91,1.66-4.68,0-3.88-1.63-8.03-6.2-8.03-.61,0-1.57,.06-2.26,.23-.2,.04-.25,.08-.25,.08l.03,13.27c0,.08,0,.11,0,.11h.03Z"/></g><g><path class="c" d="M498.56,84.68c0-7.74,0-9.12-.1-10.71-.1-1.69-.5-2.48-2.13-2.83-.35-.1-.99-.1-1.44-.15-.35-.05-.64-.1-.64-.3,0-.3,.25-.4,.79-.4,1.14,0,2.48,0,5.6,.15,.35,0,10.22,0,11.36-.05,1.09-.05,1.98-.15,2.28-.3,.3-.15,.4-.2,.54-.2s.2,.2,.2,.45c0,.35-.3,.94-.4,2.33-.05,.74-.1,1.69-.2,2.98-.05,.5-.2,.84-.4,.84-.3,0-.4-.25-.4-.64,0-.64-.1-1.24-.25-1.64-.35-1.14-1.39-1.64-3.57-1.83-.84-.1-6.25-.15-6.79-.15-.2,0-.3,.15-.3,.5v13.69c0,.35,.05,.5,.3,.5,.65,0,6.75,0,7.89-.1,1.34-.1,1.98-.25,2.48-.84,.25-.3,.4-.5,.59-.5,.15,0,.25,.1,.25,.4s-.25,1.14-.4,2.78c-.15,1.54-.15,2.68-.2,3.37-.05,.5-.15,.74-.35,.74-.3,0-.35-.4-.35-.79,0-.45-.05-.94-.2-1.39-.2-.74-.79-1.44-2.58-1.64-1.34-.15-6.25-.25-7.09-.25-.25,0-.35,.15-.35,.35v4.36c0,1.69-.05,7.44,0,8.48,.1,2.03,.4,3.12,1.64,3.62,.84,.35,2.18,.45,4.12,.45,1.49,0,3.12-.05,4.46-.45,1.59-.5,2.13-1.54,2.53-3.67,.1-.55,.2-.74,.45-.74,.3,0,.3,.4,.3,.74,0,.4-.4,3.77-.64,4.81-.35,1.29-.74,1.29-2.68,1.29-3.67,0-5.31-.1-7.24-.15-1.98-.05-4.26-.15-6.2-.15-1.19,0-2.38,.2-3.67,.15-.54,0-.79-.1-.79-.4,0-.15,.25-.25,.54-.3,.5-.05,.79-.05,1.14-.15,1.04-.25,1.69-.94,1.79-4.66,.05-1.93,.1-4.46,.1-8.88v-8.73Z"/><path class="c" d="M512.89,108.44c-2.72,0-4.33-.05-5.76-.1-.51-.02-.99-.03-1.5-.05-.63-.02-1.29-.04-1.97-.06-1.43-.04-2.91-.09-4.22-.09-.51,0-1.02,.04-1.53,.08-.69,.05-1.4,.1-2.16,.07h0c-.84,0-1.27-.3-1.27-.9,0-.24,.12-.65,.96-.79l.39-.04c.29-.02,.49-.04,.7-.1,.6-.14,1.32-.32,1.42-4.19,.05-1.91,.1-4.46,.1-8.86v-8.73c0-7.72,0-9.11-.1-10.68-.09-1.61-.45-2.1-1.74-2.37-.21-.06-.56-.08-.86-.1-.19-.01-.37-.02-.53-.04-.39-.06-1.09-.16-1.09-.79,0-.59,.44-.9,1.29-.9,1.17,0,2.49,0,5.63,.15,.39,0,10.19,0,11.31-.05,1.38-.06,1.96-.18,2.08-.24,.32-.16,.5-.25,.77-.25,.12,0,.7,.05,.7,.95,0,.19-.05,.39-.11,.64-.09,.38-.22,.9-.28,1.73l-.05,.75c-.04,.61-.08,1.34-.15,2.23-.11,1.14-.61,1.3-.89,1.3-.21,0-.9-.08-.9-1.14,0-.55-.08-1.1-.22-1.46-.23-.77-.85-1.3-3.15-1.51-.76-.09-5.4-.14-6.55-.15v13.68c3.21,0,6.83-.03,7.64-.1,1.33-.1,1.79-.24,2.14-.67,.31-.38,.56-.68,.98-.68,.34,0,.75,.23,.75,.9,0,.13-.04,.35-.09,.67-.08,.46-.21,1.15-.3,2.16-.1,1.02-.13,1.85-.16,2.51-.01,.33-.02,.62-.04,.85-.03,.34-.12,1.21-.85,1.21-.39,0-.85-.22-.85-1.29,0-.47-.06-.89-.17-1.23-.13-.48-.49-1.11-2.16-1.3-1.25-.14-5.73-.23-6.88-.24v4.21c0,.47,0,1.27,0,2.18-.01,2.34-.03,5.54,0,6.27,.1,2.07,.41,2.81,1.32,3.18,.7,.29,1.87,.41,3.93,.41,1.5,0,3.06-.05,4.32-.43,1.28-.4,1.79-1.17,2.18-3.28,.07-.4,.21-1.15,.94-1.15,.8,0,.8,.9,.8,1.24,0,.46-.41,3.89-.66,4.93-.45,1.67-1.24,1.67-3.16,1.67Zm-13.44-1.3c1.32,0,2.81,.05,4.25,.09,.67,.02,1.33,.04,1.96,.06,.51,.01,1,.03,1.51,.05,1.42,.05,3.02,.1,5.72,.1,1.95,0,1.95-.02,2.2-.92,.13-.56,.31-1.83,.44-2.91-.43,1.17-1.12,1.96-2.44,2.38-1.39,.41-3.04,.47-4.61,.47-2.22,0-3.47-.14-4.31-.48-1.5-.6-1.84-1.89-1.94-4.06-.04-.76-.02-3.98,0-6.33,0-.92,0-1.71,0-2.18v-4.36c0-.5,.35-.85,.85-.85,.74,0,5.73,.09,7.15,.25,1.68,.19,2.66,.82,2.99,1.94,.02-.52,.06-1.11,.13-1.79,.09-.99,.21-1.69,.3-2.17-.63,.63-1.4,.79-2.69,.88-1.07,.09-6.34,.1-7.92,.1-.36,0-.8-.17-.8-1v-13.69c0-.92,.61-1,.8-1,.36,0,5.94,.04,6.85,.15,1.77,.16,3.49,.54,3.99,2.18,.05,.14,.1,.31,.14,.49,.03-.43,.05-.82,.07-1.16l.05-.75c.07-.92,.21-1.51,.31-1.9,.02-.07,.03-.13,.05-.19-.15,.07-.59,.26-2.47,.34-1.12,.05-10.33,.05-11.38,.05-1.6-.08-2.73-.11-3.6-.13,1.46,.5,1.83,1.55,1.92,3.12,.1,1.6,.1,3,.1,10.74v8.73c0,4.42-.05,6.97-.1,8.89-.08,3.05-.51,4.42-1.65,4.96,.18-.01,.36-.02,.54-.04,.54-.04,1.07-.08,1.61-.08Zm15.06-36.93h0Z"/></g><g><path class="c" d="M524.62,84.68c0-7.74,0-9.12-.1-10.71-.1-1.69-.5-2.48-2.13-2.83-.4-.1-1.24-.15-1.69-.15-.2,0-.4-.1-.4-.3,0-.3,.25-.4,.79-.4,2.23,0,5.36,.15,5.6,.15,.54,0,4.31-.15,5.85-.15,3.12,0,6.45,.3,9.08,2.18,1.24,.89,3.42,3.32,3.42,6.74,0,3.67-1.54,7.34-6,11.46,4.07,5.21,7.44,9.62,10.32,12.7,2.68,2.83,4.81,3.37,6.05,3.57,.94,.15,1.64,.15,1.93,.15,.25,0,.45,.15,.45,.3,0,.3-.3,.4-1.19,.4h-3.52c-2.78,0-4.02-.25-5.31-.94-2.13-1.14-3.87-3.57-6.7-7.29-2.08-2.73-4.41-6.05-5.41-7.34-.2-.2-.35-.3-.64-.3l-6.1-.1c-.25,0-.35,.15-.35,.4v1.19c0,4.76,0,8.68,.25,10.76,.15,1.44,.45,2.53,1.93,2.73,.69,.1,1.79,.2,2.23,.2,.3,0,.4,.15,.4,.3,0,.25-.25,.4-.79,.4-2.73,0-5.85-.15-6.1-.15-.05,0-3.17,.15-4.66,.15-.54,0-.79-.1-.79-.4,0-.15,.1-.3,.4-.3,.45,0,1.04-.1,1.49-.2,.99-.2,1.24-1.29,1.44-2.73,.25-2.08,.25-6,.25-10.76v-8.73Zm3.97,4.31c0,.25,.1,.45,.35,.6,.74,.45,3.03,.79,5.21,.79,1.19,0,2.58-.15,3.72-.94,1.74-1.19,3.02-3.87,3.02-7.64,0-6.2-3.27-9.92-8.58-9.92-1.49,0-2.83,.15-3.32,.3-.25,.1-.4,.3-.4,.6v16.22Z"/><path class="c" d="M556.61,108.29h-3.52c-2.79,0-4.13-.24-5.54-1-2.06-1.1-3.72-3.28-6.22-6.59l-.64-.84c-1.2-1.57-2.5-3.36-3.54-4.8-.78-1.08-1.45-1.99-1.87-2.54-.1-.1-.13-.1-.25-.1l-5.94-.1v1.08c0,4.64,0,8.65,.24,10.7,.17,1.63,.52,2.16,1.5,2.29,.68,.1,1.75,.19,2.17,.19,.62,0,.9,.41,.9,.8,0,.27-.13,.9-1.29,.9-2.11,0-4.41-.09-5.52-.13-.32-.01-.52-.02-.58-.02h-.2c-.79,.04-3.19,.15-4.46,.15-.86,0-1.29-.3-1.29-.9,0-.38,.28-.8,.9-.8,.34,0,.86-.07,1.38-.19,.64-.13,.85-.88,1.05-2.31,.24-2.04,.24-6.05,.24-10.69v-8.73c0-7.72,0-9.11-.1-10.68-.09-1.61-.45-2.1-1.74-2.37-.33-.08-1.09-.14-1.58-.14s-.9-.34-.9-.8c0-.59,.44-.9,1.29-.9,1.68,0,3.89,.08,4.96,.13,.35,.01,.59,.02,.65,.02,.2,0,.85-.02,1.66-.05,1.38-.04,3.23-.1,4.19-.1,3.06,0,6.57,.27,9.37,2.28,1.35,.97,3.63,3.57,3.63,7.15,0,4.08-1.85,7.74-5.83,11.51l1.16,1.49c3.4,4.36,6.33,8.13,8.85,10.81,2.5,2.64,4.49,3.21,5.76,3.42,.9,.14,1.57,.14,1.86,.14,.52,0,.95,.36,.95,.8,0,.9-1.06,.9-1.69,.9Zm-27.67-16.97l6.11,.1c.45,0,.72,.18,.99,.44,.47,.6,1.14,1.52,1.93,2.61,1.04,1.43,2.33,3.22,3.52,4.78l.64,.84c2.42,3.2,4.02,5.31,5.89,6.31,1.24,.67,2.47,.88,5.07,.88h1.5c-1.4-.34-3.31-1.17-5.58-3.57-2.55-2.72-5.49-6.51-8.91-10.89l-1.72-2.21,.34-.31c3.98-3.67,5.84-7.2,5.84-11.09,0-3.18-2.02-5.48-3.21-6.34-2.56-1.84-5.88-2.09-8.78-2.09-.96,0-2.79,.06-4.16,.1-.83,.03-1.48,.05-1.69,.05-.06,0-.31,0-.69-.02-.66-.03-1.75-.07-2.89-.1,1.44,.51,1.8,1.55,1.89,3.11,.1,1.6,.1,3,.1,10.74v8.73c0,4.87,0,8.71-.25,10.82-.15,1.09-.35,2.54-1.43,3.03,1.12-.03,2.31-.09,2.82-.11,.15,0,.24,0,.25,0,.06,0,.28,0,.61,.02,.67,.03,1.76,.07,2.99,.1-1.38-.46-1.64-1.8-1.77-3.04-.25-2.11-.25-5.95-.25-10.81v-1.19c0-.54,.33-.9,.85-.9Zm5.21-.44c-2,0-4.52-.3-5.46-.86-.39-.23-.59-.59-.59-1.02v-16.22c0-.49,.26-.88,.71-1.06,.66-.2,2.12-.33,3.51-.33,5.6,0,9.08,3.99,9.08,10.42,0,3.65-1.21,6.66-3.24,8.05-1.33,.92-2.92,1.03-4,1.03Zm-1.83-18.5c-1.56,0-2.8,.16-3.18,.28-.02,0-.04,.03-.04,.12v16.22c0,.07,0,.11,.1,.17,.58,.35,2.63,.72,4.95,.72,.95,0,2.34-.09,3.43-.85,1.76-1.21,2.81-3.91,2.81-7.23,0-5.9-3.02-9.42-8.08-9.42Z"/></g><g><path class="c" d="M566.73,93.51c0,7.29,.2,10.46,1.09,11.36,.79,.79,2.08,1.14,5.95,1.14,2.63,0,4.81-.05,6-1.49,.64-.79,1.14-2.03,1.29-2.98,.05-.4,.15-.64,.45-.64,.25,0,.3,.2,.3,.74s-.35,3.52-.74,4.96c-.35,1.14-.5,1.34-3.12,1.34-4.26,0-8.48-.3-13.29-.3-1.54,0-3.03,.15-4.86,.15-.54,0-.79-.1-.79-.4,0-.15,.1-.3,.4-.3,.45,0,1.04-.1,1.49-.2,.99-.2,1.24-1.29,1.44-2.73,.25-2.08,.25-6,.25-10.76v-8.73c0-7.74,0-9.12-.1-10.71-.1-1.69-.5-2.48-2.13-2.83-.4-.1-1.24-.15-1.69-.15-.2,0-.4-.1-.4-.3,0-.3,.25-.4,.79-.4,2.23,0,5.36,.15,5.6,.15s3.87-.15,5.36-.15c.55,0,.79,.1,.79,.4,0,.2-.2,.3-.4,.3-.35,0-1.04,.05-1.64,.15-1.44,.25-1.83,1.09-1.93,2.83-.1,1.59-.1,2.97-.1,10.71v8.83Z"/><path class="c" d="M577.94,108.44c-2.08,0-4.11-.07-6.26-.14-2.9-.1-5.93-.24-9.22-.09-.83,.04-1.7,.08-2.67,.08-.86,0-1.29-.3-1.29-.9,0-.38,.28-.8,.9-.8,.34,0,.86-.07,1.38-.19,.64-.13,.85-.88,1.05-2.31,.24-2.04,.24-6.05,.24-10.69v-8.73c0-7.72,0-9.11-.1-10.68-.09-1.61-.45-2.1-1.74-2.37-.33-.08-1.09-.14-1.58-.14s-.9-.34-.9-.8c0-.59,.44-.9,1.29-.9,1.68,0,3.89,.08,4.96,.13,.35,.01,.59,.02,.65,.02,.07,0,.42-.01,.92-.03,1.26-.04,3.38-.12,4.44-.12,.86,0,1.29,.3,1.29,.9,0,.46-.39,.8-.9,.8-.34,0-1,.05-1.55,.14-1.08,.19-1.42,.72-1.52,2.36-.1,1.57-.1,2.96-.1,10.68v8.83c0,6.37,.15,10.21,.94,11,.63,.63,1.75,.99,5.6,.99,2.74,0,4.61-.09,5.62-1.31,.55-.67,1.03-1.8,1.18-2.73,.09-.7,.41-1.07,.94-1.07,.8,0,.8,.84,.8,1.24,0,.57-.34,3.58-.76,5.09-.45,1.48-.92,1.71-3.61,1.71Zm-13.29-1.3c2.49,0,4.81,.08,7.06,.16,2.14,.07,4.17,.14,6.23,.14,2.35,0,2.37-.07,2.65-.98,.24-.87,.47-2.36,.6-3.47-.24,.65-.59,1.32-1.02,1.85-1.38,1.67-3.93,1.67-6.39,1.67-3.8,0-5.33-.31-6.3-1.29-.97-.97-1.24-3.49-1.24-11.71v-8.83c0-7.74,0-9.14,.1-10.74,.09-1.54,.42-2.62,1.64-3.1-.84,.02-1.72,.05-2.38,.08-.51,.02-.88,.03-.95,.03-.06,0-.31,0-.69-.02-.66-.03-1.75-.07-2.89-.1,1.44,.51,1.8,1.55,1.89,3.11,.1,1.6,.1,3,.1,10.74v8.73c0,4.87,0,8.71-.25,10.82-.15,1.09-.35,2.53-1.43,3.03,.35-.01,.69-.03,1.02-.04,.76-.04,1.49-.07,2.24-.07Z"/></g><g><path class="c" d="M588.9,84.68c0-7.74,0-9.12-.1-10.71-.1-1.69-.6-2.53-1.69-2.78-.55-.15-1.19-.2-1.54-.2-.2,0-.4-.1-.4-.3,0-.3,.25-.4,.79-.4,1.64,0,4.76,.15,5.01,.15s3.37-.15,4.86-.15c.55,0,.79,.1,.79,.4,0,.2-.2,.3-.4,.3-.35,0-.64,.05-1.24,.15-1.34,.25-1.74,1.09-1.83,2.83-.1,1.59-.1,2.97-.1,10.71v8.73c0,4.76,0,8.68,.25,10.76,.15,1.44,.45,2.53,1.93,2.73,.69,.1,1.74,.2,2.03,.2,.45,0,.59,.15,.59,.3,0,.25-.2,.4-.74,.4-2.73,0-5.9-.15-6.15-.15s-3.37,.15-4.86,.15c-.54,0-.79-.1-.79-.4,0-.15,.1-.3,.54-.3,.3,0,.84-.05,1.29-.15,.99-.2,1.29-1.34,1.49-2.78,.25-2.08,.25-6,.25-10.76v-8.73Z"/><path class="c" d="M597.13,108.29c-2.1,0-4.44-.09-5.57-.13-.32-.01-.53-.02-.58-.02-.07,0-.38,.01-.81,.03-1.12,.04-2.98,.12-4.05,.12-.86,0-1.29-.3-1.29-.9,0-.19,.08-.8,1.04-.8,.28,0,.78-.05,1.18-.14,.58-.12,.88-.78,1.1-2.36,.24-2.04,.24-6.05,.24-10.69v-8.73c0-7.72,0-9.11-.1-10.68-.1-1.7-.59-2.16-1.3-2.32-.54-.15-1.15-.19-1.43-.19-.51,0-.9-.34-.9-.8,0-.59,.44-.9,1.29-.9,1.19,0,3.17,.08,4.24,.12,.42,.02,.7,.03,.77,.03s.38-.01,.81-.03c1.12-.04,2.98-.12,4.05-.12,.86,0,1.29,.3,1.29,.9,0,.46-.39,.8-.9,.8-.3,0-.56,.04-1.16,.14-.88,.16-1.31,.56-1.42,2.36-.1,1.57-.1,2.96-.1,10.68v8.73c0,4.64,0,8.65,.24,10.7,.17,1.63,.52,2.16,1.5,2.29,.69,.1,1.7,.19,1.97,.19,1.06,0,1.09,.72,1.09,.8,0,.27-.12,.9-1.24,.9Zm-11.44-.68h0Zm1.94-36.78c1.33,.52,1.59,1.92,1.66,3.11,.1,1.6,.1,3,.1,10.74v8.73c0,4.87,0,8.71-.25,10.82-.17,1.22-.43,2.52-1.38,3.03,.84-.03,1.72-.06,2.36-.09,.46-.02,.78-.03,.85-.03,.06,0,.28,0,.62,.02,.67,.02,1.76,.07,2.98,.09-1.38-.46-1.63-1.79-1.76-3.03-.25-2.11-.25-5.95-.25-10.81v-8.73c0-7.74,0-9.14,.1-10.74,.09-1.51,.41-2.63,1.61-3.11-.86,.03-1.79,.06-2.45,.09-.46,.02-.78,.03-.85,.03s-.37-.01-.81-.03c-.64-.02-1.61-.06-2.53-.09Z"/></g><g><path class="c" d="M606.03,93.16c0-17.9,.1-11.46,.05-21.08,0-1.93,.15-2.48,.55-2.48s1.24,1.09,1.74,1.59c.74,.84,8.13,8.83,15.77,17.01,4.91,5.26,10.32,11.31,11.9,12.94l-.55-25.19c-.05-3.22-.4-4.31-1.93-4.71-.89-.2-1.69-.25-2.13-.25-.54,0-.69-.15-.69-.35,0-.3,.4-.35,.99-.35,2.23,0,4.61,.15,5.16,.15s2.18-.15,4.22-.15c.54,0,.89,.05,.89,.35,0,.2-.2,.3-.55,.35-.4,.05-.69,.1-1.29,.2-1.39,.3-1.74,1.04-1.74,4.46l-.1,28.96c0,3.27-.1,3.52-.45,3.52-.4,0-.99-.55-3.62-3.17-.55-.5-7.69-7.79-12.94-13.44-5.75-6.2-11.36-12.45-12.94-14.23l.64,23.75c.1,4.07,.6,5.36,1.93,5.75,.94,.25,2.03,.3,2.48,.3,.25,0,.4,.1,.4,.3,0,.3-.3,.4-.89,.4-2.83,0-4.81-.15-5.26-.15s-2.53,.15-4.76,.15c-.5,0-.79-.05-.79-.4,0-.2,.15-.3,.4-.3,.4,0,1.29-.05,2.03-.3,1.24-.35,1.49-1.79,1.49-6.3v-7.34Z"/><path class="c" d="M637.87,108.64c-.61,0-1.11-.46-3.97-3.32-.52-.47-7.65-7.75-12.96-13.45-4.9-5.28-9.73-10.63-12.04-13.22l.61,22.39c.1,4.1,.61,5,1.58,5.29,1.02,.27,2.21,.28,2.34,.28,.62,0,.9,.4,.9,.8,0,.59-.47,.9-1.39,.9-2.04,0-3.61-.08-4.54-.12-.35-.02-.59-.03-.71-.03-.13,0-.42,.01-.81,.03-.89,.04-2.39,.12-3.95,.12-.35,0-1.29,0-1.29-.9,0-.4,.28-.8,.9-.8,.49,0,1.27-.07,1.88-.27,.9-.25,1.15-1.5,1.15-5.82v-7.34c0-9.44,.03-12.14,.05-13.94,.02-1.64,.03-2.59,0-7.14,0-1.54,0-2.98,1.05-2.98,.48,0,.95,.48,1.66,1.27,.16,.17,.3,.34,.43,.46,.75,.85,8.1,8.79,15.78,17.02,2.6,2.78,5.35,5.81,7.57,8.24,1.4,1.54,2.59,2.85,3.44,3.76l-.52-23.89c-.05-3.29-.43-3.95-1.56-4.24-.94-.21-1.72-.23-2.01-.23-1.08,0-1.19-.59-1.19-.85,0-.85,1.01-.85,1.49-.85,1.5,0,3.07,.07,4.11,.11,.5,.02,.87,.04,1.05,.04s.48-.02,.88-.04c.79-.04,1.98-.11,3.33-.11,.42,0,1.39,0,1.39,.85,0,.32-.17,.73-.97,.84-.4,.05-.69,.1-1.28,.2-.91,.19-1.32,.43-1.32,3.97l-.1,28.96c0,3.17,0,4.02-.95,4.02Zm-30.04-32.7l.91,1.02c1.67,1.88,7.26,8.11,12.94,14.22,5.29,5.69,12.39,12.93,12.91,13.41,1.36,1.36,2.65,2.65,3.14,2.97,.09-.59,.09-2.14,.09-2.95l.1-28.96c0-3.08,.26-4.33,1.69-4.83-.7,.02-1.32,.06-1.78,.08-.43,.02-.75,.04-.94,.04s-.57-.02-1.09-.04c-.51-.02-1.14-.05-1.83-.07,1.68,.57,1.99,2.08,2.04,5.11l.57,26.46-.89-.92c-.75-.78-2.34-2.52-4.35-4.72-2.21-2.43-4.97-5.45-7.56-8.23-7.69-8.24-15.05-16.19-15.78-17.02-.11-.11-.27-.29-.44-.48-.22-.25-.61-.67-.85-.86-.06,.22-.12,.73-.12,1.9,.02,4.55,.01,5.51,0,7.15-.02,1.79-.05,4.5-.05,13.93v7.34c0,4.29-.17,6.26-1.79,6.76,.82-.03,1.54-.06,2.06-.08,.42-.02,.72-.03,.86-.03,.13,0,.39,.01,.76,.03,.56,.03,1.34,.06,2.32,.09-1.78-.57-2.15-2.55-2.24-6.2l-.68-25.12Z"/></g></g><rect class="c" x="202.94" y="42.92" width="439.47" height="1.5"/><rect class="c" x="202.94" y="53.86" width="439.47" height="1.75"/><rect class="c" x="202.94" y="47.95" width="439.47" height="2.5"/></g></svg></svg>
